<?xml version="1.0" encoding="utf-8"?>
<!-- Generator: Adobe Illustrator 16.0.0, SVG Export Plug-In . SVG Version: 6.00 Build 0)  -->
<!DOCTYPE svg PUBLIC "-//W3C//DTD SVG 1.1//EN" "http://www.w3.org/Graphics/SVG/1.1/DTD/svg11.dtd">
<svg version="1.1" id="Ebene_1" xmlns="http://www.w3.org/2000/svg" xmlns:xlink="http://www.w3.org/1999/xlink" x="0px" y="0px"
	 width="104px" height="50px" viewBox="0 0 104 50" enable-background="new 0 0 104 50" xml:space="preserve">
<g>
	<g>
		<path fill="#FFFFFF" d="M24.955,0c7.022,0,12.947,2.41,17.767,7.232c4.849,4.852,7.276,10.774,7.276,17.769
			c0,7.022-2.381,12.871-7.144,17.543C37.795,47.516,31.83,50,24.955,50c-6.757,0-12.619-2.458-17.589-7.367
			C2.456,37.723,0,31.845,0,25S2.456,12.232,7.366,7.232C12.188,2.41,18.05,0,24.955,0z M25.044,4.509
			c-5.684,0-10.491,1.994-14.419,5.982C6.546,14.659,4.508,19.495,4.508,25c0,5.537,2.023,10.329,6.07,14.374
			c4.048,4.047,8.868,6.069,14.464,6.069c5.564,0,10.417-2.035,14.554-6.113c3.929-3.78,5.892-8.557,5.892-14.331
			c0-5.684-1.994-10.519-5.981-14.509C35.521,6.503,30.699,4.509,25.044,4.509z M31.741,18.795V29.02h-2.856V41.16h-7.768V29.02
			H18.26V18.795c0-0.447,0.156-0.826,0.468-1.139c0.313-0.312,0.693-0.469,1.138-0.469h10.269c0.417,0,0.789,0.157,1.116,0.469
			C31.576,17.969,31.741,18.348,31.741,18.795z M21.517,12.366c0-2.35,1.16-3.526,3.482-3.526c2.322,0,3.482,1.174,3.482,3.526
			c0,2.322-1.161,3.482-3.482,3.482S21.517,14.688,21.517,12.366z"/>
	</g>
</g>
<g>
	<path fill="#FFFFFF" d="M78.953,0c6.99,0,12.947,2.44,17.857,7.322c2.353,2.35,4.139,5.038,5.356,8.058
		C103.389,18.401,104,21.608,104,25c0,3.423-0.604,6.631-1.809,9.622c-1.205,2.987-2.984,5.63-5.336,7.923
		c-2.439,2.41-5.207,4.258-8.304,5.536C85.459,49.357,82.257,50,78.953,50c-3.305,0-6.465-0.631-9.484-1.896
		c-3.021-1.267-5.73-3.097-8.127-5.49c-2.396-2.397-4.22-5.098-5.469-8.104c-1.249-3.006-1.875-6.173-1.875-9.508
		c0-3.304,0.632-6.481,1.896-9.532c1.265-3.05,3.104-5.781,5.514-8.193C66.17,2.426,72.02,0,78.953,0z M79.044,4.509
		c-5.716,0-10.522,1.996-14.423,5.983c-1.963,1.994-3.475,4.233-4.528,6.719c-1.059,2.485-1.587,5.083-1.587,7.791
		c0,2.678,0.528,5.259,1.587,7.745c1.054,2.485,2.565,4.704,4.528,6.653c1.965,1.951,4.182,3.438,6.654,4.464
		c2.469,1.026,5.059,1.54,7.769,1.54c2.679,0,5.272-0.519,7.792-1.561c2.514-1.043,4.781-2.547,6.807-4.511
		c3.898-3.81,5.848-8.588,5.848-14.331c0-2.768-0.504-5.386-1.52-7.856c-1.009-2.47-2.484-4.673-4.416-6.609
		C89.532,6.519,84.697,4.509,79.044,4.509z M78.729,20.85l-3.348,1.741c-0.357-0.743-0.797-1.265-1.318-1.562
		c-0.52-0.298-1.002-0.446-1.449-0.446c-2.231,0-3.348,1.473-3.348,4.419c0,1.34,0.278,2.41,0.846,3.214
		c0.565,0.808,1.4,1.206,2.502,1.206c1.457,0,2.484-0.714,3.08-2.145l3.08,1.562c-0.653,1.223-1.562,2.18-2.724,2.88
		c-1.157,0.701-2.44,1.05-3.84,1.05c-2.231,0-4.032-0.682-5.401-2.053s-2.055-3.275-2.055-5.715c0-2.381,0.693-4.27,2.075-5.669
		c1.385-1.399,3.132-2.099,5.248-2.099C75.175,17.233,77.391,18.438,78.729,20.85z M93.148,20.85l-3.303,1.741
		c-0.355-0.743-0.797-1.265-1.318-1.562c-0.521-0.298-1.021-0.446-1.494-0.446c-2.231,0-3.35,1.473-3.35,4.419
		c0,1.34,0.283,2.41,0.848,3.214c0.566,0.808,1.398,1.206,2.502,1.206c1.458,0,2.484-0.714,3.078-2.145l3.125,1.562
		c-0.685,1.223-1.606,2.18-2.768,2.88c-1.16,0.701-2.424,1.05-3.794,1.05c-2.262,0-4.069-0.682-5.421-2.053
		c-1.355-1.371-2.033-3.275-2.033-5.715c0-2.381,0.69-4.27,2.076-5.669c1.383-1.399,3.133-2.099,5.244-2.099
		C89.639,17.233,91.84,18.438,93.148,20.85z"/>
</g>
</svg>
