<?xml version="1.0" encoding="utf-8"?>
<!-- Generator: Adobe Illustrator 16.0.0, SVG Export Plug-In . SVG Version: 6.00 Build 0)  -->
<!DOCTYPE svg PUBLIC "-//W3C//DTD SVG 1.1//EN" "http://www.w3.org/Graphics/SVG/1.1/DTD/svg11.dtd">
<svg version="1.1" id="Ebene_1" xmlns="http://www.w3.org/2000/svg" xmlns:xlink="http://www.w3.org/1999/xlink" x="0px" y="0px"
	 width="200px" height="200px" viewBox="0 0 200 200" enable-background="new 0 0 200 200" xml:space="preserve">
<g>
	<path fill-rule="evenodd" clip-rule="evenodd" fill="#99A293" d="M80.826,92.026c0.814,0,1.585,0,2.469,0
		c0.974,2.122,1.962,4.279,2.952,6.437c0.069-0.018,0.139-0.036,0.208-0.054c0-2.066,0-4.133,0-6.321c0.762,0,1.431,0,2.199,0
		c0,3.945,0,7.858,0,11.848c-0.698,0-1.39,0-2.26,0c-1.071-2.318-2.184-4.724-3.295-7.13c-0.071,0.011-0.141,0.021-0.211,0.031
		c0,2.351,0,4.7,0,7.111c-0.746,0-1.359,0-2.061,0C80.826,99.988,80.826,96.039,80.826,92.026z"/>
	<path fill-rule="evenodd" clip-rule="evenodd" fill="#535F59" d="M186.505,103.959c-0.75,0-1.442,0-2.202,0
		c-1.075-2.337-2.152-4.678-3.23-7.022c-0.084,0.015-0.167,0.028-0.25,0.043c0,2.32,0,4.64,0,6.99c-0.768,0-1.386,0-2.073,0
		c0-3.964,0-7.883,0-11.879c0.798,0,1.568,0,2.467,0c0.984,2.155,1.991,4.359,2.999,6.563c0.061-0.009,0.121-0.019,0.182-0.027
		c0-2.157,0-4.314,0-6.54c0.762,0,1.409,0,2.108,0C186.505,96.061,186.505,99.981,186.505,103.959z"/>
	<path fill-rule="evenodd" clip-rule="evenodd" fill="#99A293" d="M30.013,98.792c0.735,1.753,1.432,3.413,2.167,5.165
		c-0.857,0-1.591,0-2.479,0c-0.637-1.495-1.307-3.068-1.984-4.658c-0.395,0-0.728,0-1.149,0c0,1.553,0,3.04,0,4.62
		c-0.805,0-1.523,0-2.302,0c0-3.937,0-7.852,0-11.886c1.831-0.1,3.601-0.28,5.3,0.276c2.332,0.764,3.012,4.138,1.234,5.849
		C30.577,98.372,30.318,98.547,30.013,98.792z M26.625,97.288c0.831-0.084,1.513-0.153,2.11-0.214
		c0.804-0.722,0.661-1.542,0.566-2.333c-0.844-0.928-1.577-1.089-2.738-0.581C26.559,95.163,26.475,96.195,26.625,97.288z"/>
	<path fill-rule="evenodd" clip-rule="evenodd" fill="#535F59" d="M197.234,95.904c-0.831,0-1.492,0-2.078,0
		c-0.353-0.629-0.569-1.351-1.053-1.763c-0.319-0.273-1.019-0.103-1.707-0.14c-0.142,0.643-0.337,1.152-0.352,1.668
		c-0.044,1.535-0.021,3.073-0.014,4.61c0.008,1.281,0.393,1.799,1.332,1.826c1,0.028,1.486-0.556,1.504-1.809
		c0.002-0.116-0.022-0.233-0.047-0.459c-0.47-0.045-0.956-0.093-1.504-0.146c0-0.573,0-1.111,0-1.746c1.252,0,2.519,0,3.846,0
		c0,1.976,0,3.93,0,5.998c-0.36,0.028-0.727,0.057-1.092,0.085c-0.16-0.297-0.284-0.528-0.42-0.782
		c-0.142,0.06-0.266,0.078-0.343,0.148c-1.151,1.062-2.454,0.955-3.751,0.403c-1.313-0.558-1.809-1.72-1.851-3.054
		c-0.056-1.731-0.04-3.467-0.013-5.201c0.034-2.154,1.173-3.466,3.097-3.635c2.542-0.224,3.854,0.67,4.317,2.954
		C197.168,95.163,197.184,95.472,197.234,95.904z"/>
	<path fill-rule="evenodd" clip-rule="evenodd" fill="#99A293" d="M34.858,92.038c1.653-0.213,3.255-0.064,4.824,0.231
		c1.363,0.257,2.369,1.579,2.432,3.116c0.071,1.729,0.09,3.469-0.001,5.196c-0.101,1.917-1.398,3.241-3.29,3.386
		c-1.286,0.1-2.585,0.02-3.965,0.02C34.858,99.983,34.858,96.037,34.858,92.038z M39.035,101.853c0.236-0.445,0.67-0.9,0.695-1.376
		c0.088-1.646,0.078-3.301,0.017-4.949c-0.034-0.917-0.605-1.387-1.545-1.446c-0.377-0.023-0.758,0.027-1.152,0.046
		c0,2.627,0,5.158,0,7.726C37.679,101.853,38.225,101.853,39.035,101.853z"/>
	<path fill-rule="evenodd" clip-rule="evenodd" fill="#99A293" d="M6.733,101.639c0.676,0.495,1.305,0.679,1.948,0.246
		c0.758-0.511,0.596-1.271,0.501-2.075c-0.46-0.042-0.875-0.081-1.343-0.124c0-0.602,0-1.137,0-1.757c1.219,0,2.417,0,3.696,0
		c0,1.967,0,3.919,0,5.985c-0.284,0.035-0.61,0.075-0.924,0.114c-0.205-0.276-0.365-0.493-0.563-0.762
		c-0.176,0.102-0.356,0.17-0.492,0.29c-1.372,1.215-3.807,0.566-4.634-0.655c-0.299-0.44-0.623-0.977-0.638-1.479
		c-0.069-2.271-0.111-4.549-0.003-6.817c0.07-1.49,1.347-2.568,2.837-2.679c0.275-0.021,0.552-0.018,0.828-0.018
		c2.508,0,3.755,1.335,3.598,3.947c-0.712,0-1.431,0-2.211,0c-0.054-0.395-0.107-0.776-0.181-1.312
		c-0.327-0.223-0.731-0.5-1.026-0.701c-1.035,0.114-1.61,0.592-1.631,1.447c-0.046,1.883-0.001,3.77,0.027,5.653
		C6.524,101.169,6.654,101.392,6.733,101.639z"/>
	<path fill-rule="evenodd" clip-rule="evenodd" fill="#99A293" d="M67.657,103.964c-0.714,0-1.333,0-2.136,0
		c0-1.706,0-3.368,0-5.087c-1.154,0-2.123,0-3.243,0c0,1.681,0,3.348,0,5.074c-0.839,0-1.53,0-2.302,0c0-3.907,0-7.784,0-11.745
		c0.706,0,1.396,0,2.235,0c0,1.491,0,3.005,0,4.585c1.145,0,2.142,0,3.333,0c0-0.803,0-1.535,0-2.268c0-0.743,0-1.485,0-2.312
		c0.737,0,1.383,0,2.113,0C67.657,96.095,67.657,99.974,67.657,103.964z"/>
	<path fill-rule="evenodd" clip-rule="evenodd" fill="#99A293" d="M92.16,92.026c0.666,0,1.282,0,2.047,0c0,1.43,0,2.862,0,4.296
		c0.096,0.032,0.192,0.063,0.288,0.096c1.18-1.306,1.776-3.027,2.883-4.395c0.753,0,1.486,0,2.478,0
		c-1.069,1.694-2.04,3.232-3.078,4.877c1.111,2.287,2.239,4.608,3.421,7.042c-0.947,0-1.753,0-2.654,0
		c-0.73-1.531-1.471-3.086-2.265-4.751c-1.632,1.334-0.722,3.14-1.114,4.732c-0.618,0-1.264,0-2.006,0
		C92.16,99.989,92.16,96.04,92.16,92.026z"/>
	<path fill-rule="evenodd" clip-rule="evenodd" fill="#535F59" d="M172.845,92.075c0.843,0,1.535,0,2.289,0
		c0.021,0.28,0.052,0.506,0.052,0.732c0.004,2.562,0.015,5.123,0,7.685c-0.013,2.147-0.986,3.331-3.109,3.597
		c-0.834,0.106-1.739,0.024-2.557-0.186c-1.398-0.36-2.146-1.486-2.174-3.15c-0.04-2.482-0.014-4.965-0.016-7.448
		c-0.001-0.388,0-0.775,0-1.223c0.79,0,1.48,0,2.267,0c0,1.162,0,2.26,0,3.356c0.001,1.616-0.027,3.233,0.012,4.848
		c0.028,1.165,0.454,1.695,1.308,1.813c1.213,0.167,1.908-0.443,1.921-1.764c0.024-2.325,0.008-4.65,0.008-6.977
		C172.846,92.968,172.845,92.577,172.845,92.075z"/>
	<path fill-rule="evenodd" clip-rule="evenodd" fill="#99A293" d="M44.367,103.943c1.007-4.045,1.986-7.977,2.969-11.928
		c1.013,0,1.908,0,2.991,0c0.962,3.93,1.926,7.869,2.915,11.909c-0.753,0-1.436,0-2.208,0c-0.212-0.769-0.439-1.587-0.677-2.445
		c-1.012,0-1.984,0-3.042,0c-0.241,0.821-0.479,1.635-0.723,2.465C45.879,103.943,45.229,103.943,44.367,103.943z M48.961,95.127
		c-0.105,0.001-0.21,0.002-0.315,0.003c-0.152,1.438-0.899,2.762-0.787,4.291c0.742,0,1.358,0,2.059,0
		C49.588,97.94,49.275,96.534,48.961,95.127z"/>
	<path fill-rule="evenodd" clip-rule="evenodd" fill="#535F59" d="M131.785,94.786c-0.623,0.186-1.249,0.372-1.932,0.576
		c-0.214-0.339-0.384-0.638-0.581-0.917c-0.381-0.535-0.928-0.815-1.536-0.575c-0.343,0.137-0.694,0.517-0.826,0.867
		c-0.225,0.597,0.145,1.068,0.648,1.377c0.84,0.513,1.715,0.967,2.547,1.491c1.355,0.854,1.993,2.074,1.804,3.7
		c-0.107,0.918-0.527,1.639-1.274,2.168c-2.128,1.505-5.125,0.677-6.163-1.704c-0.123-0.284-0.202-0.587-0.335-0.98
		c0.771-0.166,1.483-0.32,2.225-0.479c0.188,0.402,0.33,0.765,0.522,1.101c0.348,0.607,0.909,0.947,1.579,0.753
		c0.396-0.114,0.854-0.454,1.026-0.815c0.299-0.624,0.05-1.249-0.515-1.667c-0.503-0.374-1.044-0.698-1.575-1.033
		c-0.533-0.335-1.105-0.614-1.605-0.99c-1.244-0.935-1.613-2.182-1.143-3.665c0.402-1.27,1.47-2.021,2.974-2.096
		C129.932,91.784,131.213,92.647,131.785,94.786z"/>
	<path fill-rule="evenodd" clip-rule="evenodd" fill="#99A293" d="M14.789,92.039c2.103,0,4.096,0,6.191,0c0,0.624,0,1.26,0,2.038
		c-1.252,0-2.49,0-3.822,0c0,0.902,0,1.667,0,2.592c0.931,0,1.889,0,2.91,0c0,0.765,0,1.374,0,2.126c-0.945,0-1.87,0-2.92,0
		c-0.034,0.586-0.071,1.04-0.084,1.494c-0.013,0.469-0.003,0.938-0.003,1.568c1.407,0,2.757,0,4.166,0c0,0.771,0,1.382,0,2.075
		c-2.132,0-4.24,0-6.438,0C14.789,100.025,14.789,96.111,14.789,92.039z"/>
	<path fill-rule="evenodd" clip-rule="evenodd" fill="#99A293" d="M73.475,94.047c0,0.921,0,1.693,0,2.625c0.97,0,1.929,0,2.949,0
		c0,0.767,0,1.376,0,2.131c-0.96,0-1.885,0-2.908,0c0,1.063,0,1.984,0,3.029c1.293,0,2.614,0,4.031,0c0,0.758,0,1.396,0,2.109
		c-2.125,0-4.233,0-6.419,0c0-3.944,0-7.862,0-11.879c2.099,0,4.124,0,6.228,0c0,0.614,0,1.225,0,1.985
		C76.081,94.047,74.805,94.047,73.475,94.047z"/>
	<path fill-rule="evenodd" clip-rule="evenodd" fill="#99A293" d="M102.591,92.034c2.027,0,4.013,0,6.062,0c0,0.68,0,1.288,0,2.024
		c-1.252,0-2.454,0-3.723,0c0,0.969,0,1.813,0,2.789c0.915,0,1.803,0,2.757,0c0,0.695,0,1.262,0,1.959c-0.928,0-1.814,0-2.763,0
		c0,1.057,0,1.983,0,3.045c1.291,0,2.568,0,3.924,0c0,0.743,0,1.354,0,2.064c-2.035,0-4.099,0-6.257,0
		C102.591,99.99,102.591,96.042,102.591,92.034z"/>
	<path fill-rule="evenodd" clip-rule="evenodd" fill="#535F59" d="M154.277,96.81c0,0.75,0,1.322,0,2.017c-0.944,0-1.834,0-2.824,0
		c0,1.762,0,3.402,0,5.117c-0.79,0-1.479,0-2.259,0c0-3.913,0-7.833,0-11.842c1.936,0,3.879,0,5.866,0c0,0.633,0,1.216,0,1.945
		c-1.163,0-2.321,0-3.543,0c0,0.987,0,1.828,0,2.764C152.443,96.81,153.301,96.81,154.277,96.81z"/>
	<path fill-rule="evenodd" clip-rule="evenodd" fill="#535F59" d="M138.32,103.958c-0.912,0-1.606,0-2.385,0
		c0-3.277,0-6.498,0-9.831c-0.891,0-1.698,0-2.593,0c0-0.717,0-1.323,0-2.023c2.476,0,4.97,0,7.517,0c0,0.614,0,1.196,0,1.902
		c-0.789,0-1.594,0-2.539,0C138.32,97.371,138.32,100.618,138.32,103.958z"/>
	<path fill-rule="evenodd" clip-rule="evenodd" fill="#535F59" d="M157.028,94.117c0-0.775,0-1.351,0-1.979c2.527,0,4.991,0,7.525,0
		c0,0.617,0,1.192,0,1.884c-0.79,0-1.6,0-2.542,0c0,3.354,0,6.6,0,9.918c-0.823,0-1.516,0-2.341,0c0-3.213,0-6.46,0-9.824
		C158.736,94.117,157.928,94.117,157.028,94.117z"/>
	<path fill-rule="evenodd" clip-rule="evenodd" fill="#99A293" d="M112.057,92.057c0.762,0,1.443,0,2.267,0c0,3.294,0,6.499,0,9.833
		c1.257,0,2.377,0,3.555,0c0,0.743,0,1.354,0,2.043c-1.936,0-3.84,0-5.821,0C112.057,99.989,112.057,96.07,112.057,92.057z"/>
	<path fill-rule="evenodd" clip-rule="evenodd" fill="#535F59" d="M143.494,103.944c0-3.991,0-7.872,0-11.806
		c0.715,0,1.369,0,2.111,0c0,3.919,0,7.826,0,11.806C144.926,103.944,144.242,103.944,143.494,103.944z"/>
</g>
</svg>
