<svg viewBox="0 0 330 127" xmlns="http://www.w3.org/2000/svg"><title>Powered by E-Editiones</title><style>.slashes{fill:#9b9b9b}.text,.eeditiones{fill:#fff}</style><path class="slashes" d="M107.052 22l.786.393 1.18-.196c.523.196.785.655.785 1.377l-.196.787.393 1.18v.393l-.59.59h-.393l-.982-.786c0 1.18-.328 1.77-.983 1.77l-.982-.197L97.816 34l-7.271 7.082a5.699 5.699 0 00-1.965 2.36c-.262 0-.787.525-1.573 1.574-1.277.853-2.26 1.902-2.947 3.148-.262 0-1.376 1.115-3.341 3.344l-1.769 2.164c-.36 0-1.146.787-2.358 2.36-.197 0-.524.46-.983 1.378-.655 0-1.048.459-1.179 1.377-.59.393-1.572 1.508-2.948 3.344-.327 0-.655.46-.982 1.377-.557.164-1.277.885-2.162 2.164-.327 0-.982.721-1.965 2.164 0 .295-.786 1.148-2.358 2.557-.098.656-.426.984-.983.984 0 .492-.917 1.803-2.751 3.934-3.472 4.263-9.236 12.197-17.294 23.804-1.801 3.213-3.145 4.507-4.488 5.884L37.878 106H36.5l-.5-1 .5-1.164.395-1.377c.197-.328 1.31-1.443 3.538-3.344.098-.656.294-.984.59-.984l.392.197 11.58-16.346 6.998-8.506c1.408-1.902 2.074-2.886 2.5-3.083 0-.36.344-.994.999-1.42 1.146-1.837 2.062-1.924 2.488-1.924 0-.393-.262-1.115.393-1.377.066-.459 1.703-1.779 4.127-4.205 0-.492.327-.706.982-1 0-.263.959-1.084 2.007-2.002 0-.361.155-.629.941-1.055.295-.754.674-1.39 1.558-1.948 0-.491.452-1.101 1.5-1.79.72-1.311 1.593-1.77 2.052-1.77 1.048-1.541 1.767-2.918 2.947-3.738 0-.46.927-1.463 2.499-2.709 0-.59 1.854-2.315 4.998-5.004 0-.524.083-1.107 1-1.5 0-.394.583-.715 1.5-1.502l12.21-11.711h-.59l1.966-3.541.982-.197zm-1.965 2.95v.591h.197l.196-.59h-.393zm-64.654 78.886v.394l-.393.393v-.393l.393-.394zM93.056 22l.785.389 1.178-.195c.523.195.785.648.785 1.361l-.196.778.392 1.166v.389l-.589.583h-.392l-1.178-1.05c0 1.166-.13 2.022-.785 2.022l-.98-.195-8.154 6.632-7.033 6.967c-.884.616-1.585 1.549-2.01 2.488-.262 0-.722.456-1.507 1.493-1.276.842-2.327 1.988-3.014 3.219-.262 0-1.554 1.047-3.517 3.25l-1.507 2.192c-.36 0-1.302.731-2.512 2.286-.196 0-.547.5-1.004 1.408-.655 0-1.206.67-1.337 1.578-.589.389-1.373 1.171-2.747 2.986-.327 0-.654.585-.981 1.493-.556.162-1.085.727-1.969 1.99-.327 0-1.004.995-2.009 1.99 0 .292-.44 1.095-2.01 2.488-.098.648-.52 1.493-1.077 1.493 0 .486-1.11 1.378-2.941 3.484-3.467 4.211-9.618 12.043-17.664 23.512-1.799 3.175-1.592 4.984-2.933 6.344L23.98 105 23 103.64v-1.361h.785c-.327 0-.523-.26-.589-.778 0-.324 1.112-1.425 3.336-3.304.098-.648.295-.972.589-.972l.392.194 11.775-15.55 6.672-8.358c1.406-1.88 2.322-2.916 2.747-3.11 0-.357.327-.746.981-1.167 1.145-1.814 1.93-2.721 2.355-2.721 0-.389.327-.713.981-.972.066-.454 1.308-1.879 3.729-4.276 0-.486.327-.875.98-1.167 0-.259.524-.842 1.57-1.75 0-.355.393-.744 1.178-1.165.295-.745.883-1.393 1.766-1.944 0-.486.524-1.07 1.57-1.75.72-1.295 1.308-1.943 1.766-1.943 1.047-1.523 2.159-2.69 3.336-3.5 0-.453.785-1.295 2.355-2.526 0-.583 1.57-2.203 4.71-4.86 0-.518.458-.971 1.374-1.36 0-.389.457-.972 1.373-1.75l11.97-11.857h-.588l1.962-3.499.981-.194zm-1.962 2.916v.583h.196l.197-.583h-.393zm-64.562 77.946v.389l-.392.388v-.388l.392-.39z"></path><path class="eeditiones" d="M32.855 56c-.773 0-1.476-.103-2.109-.31C26.25 54.45 24 51.97 24 48.25c0-4.823 3.092-10.404 9.276-16.742C39.461 25.169 45.012 22 49.932 22c1.616 0 2.934.43 3.953 1.292 1.019.861 1.528 1.912 1.528 3.152 0 3.858-2.969 7.544-8.907 11.058-5.939 3.513-10.77 5.27-14.495 5.27-.562 0-1.054-.069-1.475-.207-1.055 1.86-1.582 3.824-1.582 5.89 0 3.584 1.74 5.375 5.218 5.375 3.479 0 7.994-2.308 13.546-6.924 4.287-3.376 7.941-6.959 10.963-10.748.632-.827 1.177-1.24 1.634-1.24.457 0 .685.207.685.62 0 .413-.281.999-.843 1.757-3.795 4.891-8.363 9.232-13.704 13.021C41.112 54.106 36.579 56 32.855 56zm19.923-29.763c0-.827-.896-1.24-2.688-1.24-1.792 0-4.34 1.343-7.643 4.03-4.427 3.583-7.87 7.338-10.33 11.265.421.138.878.206 1.37.206 2.67 0 6.237-1.395 10.7-4.185 4.462-2.79 7.256-5.839 8.38-9.146.14-.344.21-.654.21-.93z"></path><path class="eeditiones" d="M100.139 87.428c0 .572-.366.858-1.097.858H82.339a31.249 31.249 0 00-.182 3.433c0 3.29.777 5.818 2.331 7.585 1.555 1.767 3.764 2.65 6.63 2.65 1.442 0 2.895-.387 4.358-1.164 1.463-.776 2.641-1.767 3.535-2.973l.152-.06c.183 0 .361.112.534.336.173.225.259.49.259.797 0 .43-.65 1.323-1.95 2.682-1.301 1.358-2.713 2.395-4.237 3.11a11.134 11.134 0 01-4.785 1.073c-3.658 0-6.736-1.349-9.235-4.045-2.5-2.697-3.749-6.007-3.749-9.93 0-4.004 1.224-7.396 3.673-10.174 2.448-2.779 5.552-4.168 9.31-4.168 3.15 0 5.797 1.037 7.94 3.11 2.144 2.074 3.216 4.367 3.216 6.88zm-5.547-2.696c0-1.533-.524-2.805-1.57-3.816-1.046-1.011-2.392-1.517-4.038-1.517-1.565 0-2.921.659-4.07 1.977-1.147 1.318-1.924 3.049-2.33 5.194l8.472-.245c1.28-.02 2.19-.143 2.728-.368.538-.224.808-.633.808-1.225zm40.444 18.08c0 .43-.162.665-.487.706-1.159.143-2.5.429-4.024.858-1.523.429-2.712.858-3.565 1.287-.447.225-.773.337-.976.337-.325 0-.487-.163-.487-.49l.243-3.31c-2.153 2.37-4.896 3.555-8.229 3.555-3.515 0-6.507-1.359-8.976-4.076-2.468-2.717-3.703-5.976-3.703-9.776 0-4.311 1.367-7.8 4.1-10.466 2.733-2.666 6.161-4 10.286-4 2.357 0 4.531.736 6.522 2.207V69.44c0-1.655-.203-2.738-.61-3.248-.406-.511-1.34-.848-2.803-1.012-.325-.04-.488-.296-.488-.766 0-.531.163-.797.488-.797 1.91-.45 3.566-.99 4.968-1.624 1.402-.633 2.347-1.195 2.834-1.686.203-.204.417-.306.64-.306.57 0 .854.163.854.49-.325 4.454-.488 8.01-.488 10.665v27c0 1.41.203 2.354.61 2.834.406.48 1.34.823 2.804 1.027.325 0 .487.266.487.797zm-9.296-3.309v-15.69c0-1.063-.614-2.064-1.844-3.004-1.229-.94-2.565-1.41-4.007-1.41-5.934 0-8.9 4.188-8.9 12.565 0 3.31.711 6.058 2.133 8.244 1.423 2.186 3.292 3.279 5.608 3.279 1.321 0 2.52-.301 3.597-.904s2.215-1.63 3.413-3.08zm21.64-32.577c0 .858-.31 1.604-.93 2.237-.62.634-1.366.95-2.24.95-.874 0-1.62-.316-2.24-.95-.62-.633-.93-1.379-.93-2.237 0-.899.305-1.655.915-2.268.61-.613 1.361-.92 2.255-.92.874 0 1.62.307 2.24.92.62.613.93 1.37.93 2.268zm4.267 37.051c0 .572-.163.858-.488.858-.833 0-1.9-.06-3.2-.183-1.463-.123-2.692-.184-3.688-.184a43.52 43.52 0 00-3.657.184c-1.28.122-2.337.183-3.17.183-.325 0-.488-.286-.488-.858 0-.51.163-.786.488-.827 1.727-.225 2.84-.644 3.337-1.257.498-.613.747-1.92.747-3.922V86.63c0-1.634-.208-2.707-.625-3.217-.416-.511-1.325-.848-2.727-1.012-.326 0-.488-.265-.488-.796 0-.49.162-.736.488-.736 2.133-.552 3.88-1.139 5.242-1.762 1.361-.623 2.215-1.14 2.56-1.548.203-.245.427-.367.67-.367.57 0 .854.163.854.49-.325 4.576-.488 8.131-.488 10.665v9.623c0 2.002.25 3.31.747 3.922.498.613 1.63 1.032 3.398 1.257.325.04.488.317.488.827zm21.883-23.536c0 1.103-.264 1.655-.792 1.655l-9.083-.245v14.71c0 3.841 1.362 5.761 4.084 5.761 1.687 0 3.22-.398 4.603-1.195.162 0 .31.108.441.322.133.215.199.444.199.69 0 .51-.757 1.2-2.271 2.068-1.514.869-3.215 1.303-5.105 1.303-2.316 0-4.165-.71-5.547-2.13-1.382-1.42-2.073-3.295-2.073-5.624v-.276l.122-14.894c0-.572-.244-.858-.731-.858h-2.317c-.447 0-.67-.265-.67-.797 0-.408.183-.715.549-.919 2.824-1.675 5.282-4.035 7.375-7.08.224-.326.508-.49.854-.49.569 0 .853.164.853.49l-.244 5.854h8.96c.53 0 .793.552.793 1.655zm13.41-13.515c0 .858-.31 1.604-.929 2.237-.62.634-1.366.95-2.24.95-.874 0-1.62-.316-2.24-.95-.62-.633-.93-1.379-.93-2.237 0-.899.305-1.655.915-2.268.61-.613 1.36-.92 2.255-.92.874 0 1.62.307 2.24.92.62.613.93 1.37.93 2.268zm4.268 37.051c0 .572-.163.858-.488.858-.833 0-1.9-.06-3.2-.183-1.463-.123-2.693-.184-3.688-.184a43.52 43.52 0 00-3.658.184c-1.28.122-2.336.183-3.17.183-.324 0-.487-.286-.487-.858 0-.51.163-.786.488-.827 1.727-.225 2.84-.644 3.337-1.257.498-.613.747-1.92.747-3.922V86.63c0-1.634-.208-2.707-.625-3.217-.417-.511-1.326-.848-2.728-1.012-.325 0-.487-.265-.487-.796 0-.49.162-.736.487-.736 2.134-.552 3.881-1.139 5.242-1.762 1.362-.623 2.215-1.14 2.56-1.548.204-.245.427-.367.671-.367.57 0 .854.163.854.49-.326 4.576-.488 8.131-.488 10.665v9.623c0 2.002.249 3.31.747 3.922.497.613 1.63 1.032 3.398 1.257.325.04.488.317.488.827zM222.57 91.78c0 4.066-1.316 7.411-3.947 10.037-2.632 2.625-6.04 3.938-10.226 3.938-4.185 0-7.599-1.318-10.24-3.954-2.642-2.635-3.963-5.976-3.963-10.02 0-4.107 1.331-7.524 3.993-10.252 2.662-2.728 6.065-4.091 10.21-4.091 4.166 0 7.569 1.358 10.21 4.076 2.642 2.717 3.963 6.14 3.963 10.266zm-6.126-.061c0-3.739-.717-6.727-2.15-8.964-1.432-2.237-3.398-3.356-5.897-3.356-2.479 0-4.44 1.124-5.882 3.371-1.443 2.248-2.164 5.23-2.164 8.949 0 3.698.711 6.635 2.133 8.81 1.423 2.177 3.394 3.264 5.913 3.264 2.52 0 4.49-1.077 5.913-3.233 1.422-2.155 2.134-5.102 2.134-8.841zm41.358 12.258c0 .572-.162.858-.487.858-.813 0-1.809-.06-2.987-.183a37.198 37.198 0 00-3.444-.184c-1.016 0-2.184.061-3.505.184-1.199.122-2.205.183-3.017.183-.326 0-.488-.286-.488-.858 0-.51.162-.786.488-.827 1.402-.164 2.321-.562 2.758-1.195.437-.634.655-1.962.655-3.984V87.735c0-2.288-.447-3.964-1.34-5.026-.895-1.063-2.277-1.594-4.146-1.594-1.178 0-2.22.225-3.124.674-.904.45-1.874 1.247-2.91 2.39v13.792c0 2.022.218 3.35.655 3.984.436.633 1.356 1.031 2.758 1.195.325.04.488.317.488.827 0 .572-.163.858-.488.858-.833 0-1.85-.06-3.048-.183a38.171 38.171 0 00-3.474-.184c-.976 0-2.114.061-3.414.184-1.199.122-2.215.183-3.048.183-.325 0-.487-.286-.487-.858 0-.51.162-.786.487-.827 1.748-.225 2.875-.649 3.383-1.272s.762-1.926.762-3.907V86.63c0-1.634-.208-2.707-.625-3.217-.416-.511-1.346-.848-2.788-1.012-.325 0-.488-.265-.488-.796 0-.49.163-.736.488-.736 2.011-.51 3.688-1.088 5.029-1.731 1.34-.644 2.184-1.17 2.53-1.579.202-.245.426-.367.67-.367.569 0 .853.163.853.49l-.244 3.861c2.926-2.737 5.649-4.106 8.168-4.106 2.764 0 4.923.797 6.477 2.39 1.555 1.594 2.332 3.739 2.332 6.436V97.97c0 2.002.249 3.31.746 3.922.498.613 1.61 1.032 3.338 1.257.325.04.487.317.487.827zm26.608-16.549c0 .572-.366.858-1.097.858H266.61a31.249 31.249 0 00-.183 3.433c0 3.29.777 5.818 2.331 7.585 1.555 1.767 3.764 2.65 6.63 2.65 1.442 0 2.895-.387 4.358-1.164 1.463-.776 2.641-1.767 3.535-2.973l.153-.06c.182 0 .36.112.533.336.173.225.259.49.259.797 0 .43-.65 1.323-1.95 2.682-1.301 1.358-2.713 2.395-4.237 3.11a11.134 11.134 0 01-4.785 1.073c-3.658 0-6.736-1.349-9.235-4.045-2.5-2.697-3.749-6.007-3.749-9.93 0-4.004 1.224-7.396 3.673-10.174 2.448-2.779 5.552-4.168 9.31-4.168 3.15 0 5.797 1.037 7.94 3.11 2.144 2.074 3.216 4.367 3.216 6.88zm-5.547-2.696c0-1.533-.523-2.805-1.57-3.816-1.046-1.011-2.392-1.517-4.038-1.517-1.565 0-2.921.659-4.069 1.977-1.148 1.318-1.925 3.049-2.332 5.194l8.473-.245c1.28-.02 2.19-.143 2.728-.368.539-.224.808-.633.808-1.225zM308 96.929c0 2.492-.975 4.586-2.926 6.282-1.95 1.696-4.307 2.544-7.07 2.544-.976 0-2.48-.215-4.512-.644-1.524-.306-2.56-.46-3.108-.46-.163-1.43-.539-3.605-1.128-6.527 0-.307.295-.46.884-.46.487 0 .782.164.884.49.467 1.512 1.391 2.83 2.773 3.954 1.382 1.124 2.804 1.685 4.267 1.685 1.524 0 2.708-.418 3.55-1.256.844-.838 1.266-2.012 1.266-3.524 0-.96-.35-1.808-1.052-2.544-.7-.735-2.22-1.645-4.556-2.727-3.068-1.41-5.095-2.738-6.08-3.985-.986-1.246-1.479-2.737-1.479-4.474 0-2.145.925-3.989 2.774-5.532 1.849-1.542 4.033-2.313 6.552-2.313 1.057 0 2.54.184 4.45.551 1.057.205 1.748.307 2.073.307.06 2.41.193 4.464.396 6.16 0 .306-.295.46-.884.46-.508 0-.792-.164-.853-.49-.224-1.492-.783-2.703-1.677-3.633-.894-.93-1.96-1.394-3.2-1.394-3.17 0-4.754 1.39-4.754 4.168 0 .94.375 1.808 1.127 2.605.752.797 2.388 1.828 4.907 3.095 3.007 1.512 4.989 2.82 5.944 3.923.955 1.103 1.432 2.35 1.432 3.739z"></path><path class="text" d="M146.231 31.625v6.17H145V22.822h4.699c.656.013 1.27.123 1.841.329a4.54 4.54 0 011.498.879c.428.38.764.841 1.01 1.383.247.541.37 1.155.37 1.84 0 .686-.123 1.298-.37 1.836a4.003 4.003 0 01-1.01 1.368c-.427.373-.928.66-1.503.858a5.765 5.765 0 01-1.836.309h-3.468zm0-1.039h3.468a4.08 4.08 0 001.375-.247 3.447 3.447 0 001.108-.658 3.01 3.01 0 00.743-1.028c.182-.405.272-.864.272-1.378 0-.514-.089-.98-.267-1.398a3.063 3.063 0 00-.738-1.065 3.376 3.376 0 00-1.108-.678 4.198 4.198 0 00-1.385-.263h-3.468v6.715zm16.009 1.48c.006-.753.123-1.47.348-2.148a5.51 5.51 0 01.97-1.784c.42-.511.937-.917 1.549-1.219.612-.301 1.305-.452 2.078-.452.78 0 1.475.15 2.087.452.612.302 1.13.708 1.555 1.219.424.51.748 1.105.974 1.784.226.678.342 1.395.349 2.149v.34a7.07 7.07 0 01-.344 2.148 5.384 5.384 0 01-.97 1.784c-.423.511-.94.915-1.548 1.214-.609.298-1.303.447-2.083.447-.78 0-1.476-.15-2.088-.447a4.628 4.628 0 01-1.554-1.214 5.457 5.457 0 01-.975-1.784 6.968 6.968 0 01-.348-2.149v-.34zm1.23.34c0 .59.083 1.159.247 1.707.164.549.403 1.034.718 1.455.315.422.703.76 1.164 1.013.462.254.997.38 1.606.38.602 0 1.134-.126 1.595-.38a3.546 3.546 0 001.16-1.013c.31-.421.549-.906.713-1.455a5.92 5.92 0 00.246-1.707v-.34c0-.582-.082-1.147-.246-1.696a4.627 4.627 0 00-.718-1.455 3.637 3.637 0 00-1.17-1.018c-.465-.257-.999-.385-1.6-.385-.602 0-1.134.128-1.596.385a3.601 3.601 0 00-1.16 1.018 4.692 4.692 0 00-.712 1.455 5.885 5.885 0 00-.246 1.697v.34zm18.861 1.78l.328 1.973.41-1.974 1.878-7.517h.862l1.878 7.517.41 2.026.359-2.026 1.518-7.517h1.14l-2.463 11.126h-.995l-1.96-7.609-.328-1.779-.328 1.78-1.94 7.608h-.995l-2.462-11.126h1.139l1.55 7.517zM203.84 38c-.773 0-1.478-.144-2.114-.432a5.003 5.003 0 01-1.636-1.172 5.276 5.276 0 01-1.057-1.733 6.095 6.095 0 01-.385-2.113v-.442a6.448 6.448 0 01.395-2.221 5.731 5.731 0 011.052-1.79 4.916 4.916 0 011.57-1.197 4.392 4.392 0 011.939-.437c.738 0 1.391.133 1.96.4a4.13 4.13 0 011.43 1.096c.387.463.68 1.002.883 1.62.201.616.306 1.278.313 1.984v.75h-8.31v.237c.006.583.105 1.14.297 1.671.191.531.462 1 .81 1.404.35.404.77.728 1.262.971.493.244 1.04.365 1.642.365.684.007 1.303-.12 1.857-.38a3.9 3.9 0 001.416-1.131l.78.586a4.555 4.555 0 01-.73.797c-.28.243-.592.45-.938.622a5.211 5.211 0 01-1.134.401c-.41.096-.844.144-1.302.144zm-.236-10.488a3.3 3.3 0 00-2.473 1.069 4.304 4.304 0 00-.78 1.188 5.454 5.454 0 00-.42 1.496h7.027v-.134a4.395 4.395 0 00-.251-1.342 3.669 3.669 0 00-.657-1.157 3.254 3.254 0 00-1.04-.812c-.411-.206-.88-.308-1.406-.308zm20.953-1.05c.308 0 .616.02.923.057.308.038.565.091.77.16l-.154 1.182a9.413 9.413 0 00-.862-.144 7.442 7.442 0 00-.882-.051c-1.04 0-1.922.247-2.647.74-.725.494-1.235 1.251-1.529 2.273l.01 7.115h-1.272V26.668h1.18l.082 1.934v.226a4.921 4.921 0 011.796-1.733c.745-.421 1.607-.632 2.585-.632zM240.062 38c-.773 0-1.478-.144-2.114-.432a5.003 5.003 0 01-1.636-1.172 5.276 5.276 0 01-1.057-1.733 6.095 6.095 0 01-.385-2.113v-.442a6.448 6.448 0 01.395-2.221 5.731 5.731 0 011.052-1.79 4.916 4.916 0 011.57-1.197 4.392 4.392 0 011.939-.437c.738 0 1.392.133 1.96.4a4.13 4.13 0 011.43 1.096c.387.463.681 1.002.883 1.62.202.616.306 1.278.313 1.984v.75h-8.31v.237c.006.583.106 1.14.297 1.671.192.531.462 1 .81 1.404.35.404.77.728 1.263.971.492.244 1.04.365 1.641.365.684.007 1.303-.12 1.857-.38a3.9 3.9 0 001.416-1.131l.78.586a4.555 4.555 0 01-.729.797c-.28.243-.593.45-.939.622a5.211 5.211 0 01-1.133.401c-.41.096-.845.144-1.303.144zm-.236-10.488a3.3 3.3 0 00-2.473 1.069 4.304 4.304 0 00-.78 1.188 5.454 5.454 0 00-.42 1.496h7.028v-.134a4.395 4.395 0 00-.252-1.342 3.669 3.669 0 00-.656-1.157 3.254 3.254 0 00-1.042-.812c-.41-.206-.879-.308-1.405-.308zm13.238 4.617c0-.74.092-1.452.277-2.134.185-.682.46-1.285.826-1.81a4.155 4.155 0 011.375-1.254c.55-.312 1.198-.468 1.944-.468.704 0 1.335.15 1.893.452a4.018 4.018 0 011.4 1.265V22H262v15.794h-1.149l-.051-1.45c-.39.535-.869.945-1.437 1.23-.567.284-1.2.426-1.898.426-.731 0-1.373-.16-1.923-.478a4.26 4.26 0 01-1.375-1.265 5.766 5.766 0 01-.826-1.81 8.01 8.01 0 01-.277-2.103v-.215zm1.242.215c0 .556.06 1.108.18 1.656.119.548.312 1.04.579 1.476.266.435.615.786 1.046 1.054.431.267.958.4 1.58.4.349 0 .679-.044.99-.133a3.264 3.264 0 001.57-.992c.208-.237.385-.503.528-.797V29.62a3.862 3.862 0 00-.508-.844 3.407 3.407 0 00-.692-.658 3.177 3.177 0 00-1.867-.586c-.63 0-1.16.136-1.59.406-.431.271-.782.624-1.052 1.06-.27.435-.465.927-.585 1.475-.12.548-.18 1.1-.18 1.656v.215z"></path><path class="text" d="M289.68 32.198c0 .71-.084 1.4-.253 2.073a5.617 5.617 0 01-.776 1.784 4.075 4.075 0 01-1.317 1.247c-.53.314-1.16.47-1.89.47-.689 0-1.313-.143-1.874-.43a3.837 3.837 0 01-1.407-1.242l-.05 1.47H281V22h1.193v6.133c.365-.548.82-.973 1.367-1.277.547-.305 1.169-.457 1.865-.457.736 0 1.372.154 1.909.462.537.307.978.72 1.322 1.236.345.517.602 1.112.771 1.784.169.673.254 1.374.254 2.104v.213zm-1.203-.213c0-.548-.056-1.092-.169-1.632a4.777 4.777 0 00-.547-1.455 3.044 3.044 0 00-1.009-1.044c-.42-.267-.94-.4-1.556-.4-.358 0-.693.054-1.004.162a3.1 3.1 0 00-1.521 1.13 4.132 4.132 0 00-.478.867v5.119c.133.297.3.57.502.816.203.247.435.456.696.628a3.317 3.317 0 001.825.543c.603 0 1.112-.132 1.526-.396.415-.263.75-.61 1.005-1.039.255-.429.44-.914.556-1.454.116-.54.174-1.085.174-1.632v-.213zm14.064 3.355l.219.598 3.888-9.336H308l-5.558 12.722a7.622 7.622 0 01-.517.973 4.248 4.248 0 01-.706.857 3.32 3.32 0 01-.94.613c-.355.155-.76.233-1.218.233-.16 0-.335-.015-.527-.046a5.485 5.485 0 01-.487-.096l.139-1.014c.113.014.253.03.423.046.169.017.31.025.422.025.305 0 .583-.06.835-.182s.476-.279.672-.471a3.5 3.5 0 00.517-.65c.149-.24.273-.474.372-.704l.736-1.622-4.832-10.684h1.342l3.868 8.738z"></path></svg>
