<!-- Generator: Adobe Illustrator 16.0.0, SVG Export Plug-In . SVG Version: 6.00 Build 0)  --><svg xmlns="http://www.w3.org/2000/svg" xmlns:xlink="http://www.w3.org/1999/xlink" version="1.1" id="Ebene_1" x="0px" y="0px" width="200px" height="200px" viewBox="0 0 200 200" enable-background="new 0 0 200 200" xml:space="preserve">
<g>
	<path fill-rule="evenodd" clip-rule="evenodd" fill="#0D0D0D" d="M197.224,93.743c-0.644,0-1.286,0-1.904,0   c0.109,0.405,0.264,0.828,0.331,1.265c0.225,1.451-0.388,2.714-1.728,3.328c-0.808,0.369-1.701,0.545-2.557,0.811   c-0.395,0.123-0.796,0.235-1.182,0.381c-0.277,0.104-0.502,0.293-0.47,0.631c0.033,0.342,0.29,0.472,0.59,0.504   c0.959,0.1,1.923,0.164,2.879,0.288c0.59,0.077,1.192,0.171,1.748,0.371c2.435,0.875,2.177,3.438,0.783,4.642   c-0.69,0.596-1.514,0.883-2.397,1.027c-1.339,0.218-2.657,0.155-3.93-0.344c-0.816-0.319-1.475-0.825-1.8-1.686   c-0.399-1.062-0.094-2.083,0.847-2.716c0.284-0.19,0.601-0.336,0.947-0.526c-0.136-0.079-0.243-0.135-0.349-0.197   c-0.83-0.493-0.892-1.561-0.078-2.104c0.463-0.31,1.006-0.498,1.522-0.745c-0.119-0.06-0.27-0.134-0.418-0.21   c-1.166-0.597-1.832-1.527-1.837-2.857c-0.005-1.209,0.409-2.251,1.534-2.824c1.39-0.708,2.838-0.748,4.292-0.135   c0.221,0.094,0.469,0.161,0.706,0.168c0.682,0.023,1.367,0.013,2.049,0.004c0.141-0.001,0.279-0.051,0.42-0.078   C197.224,93.077,197.224,93.411,197.224,93.743z M191.81,102.319c-0.006,0.025-0.011,0.054-0.016,0.079   c-0.365,0.023-0.742-0.007-1.091,0.079c-0.559,0.137-1.141,0.271-1.633,0.549c-0.824,0.467-0.97,1.461-0.35,2.181   c0.262,0.304,0.619,0.559,0.982,0.73c0.824,0.392,1.717,0.493,2.623,0.442c0.735-0.042,1.452-0.174,2.104-0.54   c0.768-0.434,1.103-1.188,0.898-1.964c-0.162-0.622-0.639-0.949-1.188-1.1C193.379,102.567,192.588,102.466,191.81,102.319z    M189.848,95.595c0.088,0.431,0.136,0.862,0.265,1.27c0.282,0.888,0.979,1.391,1.851,1.394c0.854,0.002,1.567-0.527,1.842-1.41   c0.262-0.846,0.272-1.706,0.033-2.559c-0.265-0.947-0.873-1.435-1.776-1.46c-0.945-0.027-1.658,0.463-1.942,1.395   C189.985,94.664,189.938,95.131,189.848,95.595z"/>
	<path fill-rule="evenodd" clip-rule="evenodd" fill="#0D0D0D" d="M3.306,88.141c0.173,0.027,0.346,0.077,0.519,0.077   c2.818,0.006,5.636,0.003,8.454,0.003c0.166,0,0.331,0,0.55,0c0.132,1.081,0.263,2.147,0.397,3.251c-0.178,0-0.332,0-0.509,0   c-0.137-0.406-0.256-0.82-0.416-1.217c-0.332-0.833-0.938-1.333-1.855-1.353c-1.132-0.023-2.264-0.005-3.424-0.005   c0,1.982,0,3.94,0,5.942c1.148,0,2.294,0.02,3.439-0.01c0.403-0.01,0.653-0.316,0.746-0.704c0.081-0.338,0.121-0.686,0.185-1.061   c0.153-0.008,0.312-0.017,0.496-0.027c0,1.436,0,2.848,0,4.305c-0.142,0.008-0.299,0.018-0.489,0.029   c-0.053-0.324-0.081-0.635-0.158-0.933c-0.17-0.655-0.418-0.87-1.088-0.884c-1.032-0.021-2.063-0.005-3.13-0.005   c-0.01,0.124-0.028,0.233-0.028,0.342c-0.002,1.667-0.004,3.335,0,5.003c0.002,0.964,0.246,1.231,1.207,1.344   c0.18,0.021,0.36,0.028,0.571,0.044c0.008,0.179,0.017,0.339,0.027,0.57c-1.854-0.229-3.675-0.22-5.494-0.004   c0-0.2,0-0.399,0-0.599c0.133,0,0.266,0.007,0.398-0.002c1.125-0.067,1.402-0.36,1.402-1.465c0-3.527,0-7.053,0-10.58   c0-0.132,0.003-0.267-0.004-0.398c-0.024-0.443-0.217-0.771-0.671-0.872c-0.371-0.083-0.75-0.129-1.125-0.192   C3.306,88.541,3.306,88.34,3.306,88.141z"/>
	<path fill-rule="evenodd" clip-rule="evenodd" fill="none" d="M3.306,88.74c0.375,0.063,0.754,0.11,1.125,0.192   c0.454,0.101,0.647,0.429,0.671,0.872c0.007,0.132,0.004,0.267,0.004,0.398c0,3.526,0,7.052,0,10.58   c0,1.105-0.277,1.398-1.402,1.465c-0.132,0.009-0.265,0.002-0.398,0.002C3.306,97.746,3.306,93.244,3.306,88.74z"/>
	<path fill-rule="evenodd" clip-rule="evenodd" fill="#0D0D0D" d="M60.259,88.544c0.576-0.081,1.123-0.143,1.663-0.237   c0.523-0.092,1.041-0.217,1.62-0.34c0,1.829,0,3.651,0,5.473c0.034,0.016,0.069,0.031,0.103,0.047   c0.123-0.119,0.245-0.24,0.369-0.358c1.5-1.425,4.052-1.112,5.068,0.624c0.413,0.705,0.437,1.495,0.444,2.275   c0.017,1.667,0.005,3.335,0.005,5.002c0,1.081,0.165,1.253,1.264,1.327c0.067,0.005,0.133,0.01,0.228,0.017   c0.013,0.074,0.035,0.15,0.04,0.227c0.004,0.065-0.009,0.13-0.013,0.175c-0.028,0.029-0.039,0.053-0.05,0.053   c-1.546,0-3.092,0-4.636,0c-0.023-0.025-0.061-0.051-0.062-0.076c-0.006-0.111-0.003-0.226-0.003-0.362   c0.179-0.014,0.325-0.022,0.469-0.039c0.708-0.074,0.971-0.354,0.973-1.062c0.004-1.751,0.004-3.501-0.001-5.251   c0-0.366,0.005-0.737-0.051-1.097c-0.229-1.47-1.656-2.138-2.971-1.409c-0.797,0.44-1.139,1.146-1.154,2.019   c-0.022,1.316-0.016,2.633-0.021,3.949c-0.002,0.568-0.001,1.134,0,1.701c0.002,0.811,0.242,1.073,1.043,1.147   c0.099,0.009,0.199,0.019,0.331,0.03c0.014,0.066,0.036,0.141,0.042,0.218c0.005,0.064-0.007,0.13-0.011,0.189   c-1.567,0-3.122,0-4.702,0c0-0.104,0-0.245,0-0.382c0.327-0.054,0.641-0.084,0.943-0.16c0.335-0.084,0.55-0.302,0.568-0.67   c0.01-0.182,0.027-0.365,0.027-0.548c0.002-3.551,0.001-7.101,0.001-10.653c0-0.016,0-0.034,0-0.05   c-0.004-1.151-0.203-1.352-1.367-1.382c-0.048-0.001-0.096-0.013-0.161-0.022C60.259,88.802,60.259,88.692,60.259,88.544z"/>
	<path fill-rule="evenodd" clip-rule="evenodd" fill="#0D0D0D" d="M128.501,101.742c-0.271,0.466-0.52,0.895-0.773,1.336   c-0.134,0-0.26,0-0.41,0c0-1.571,0-3.115,0-4.708c0.15-0.007,0.306-0.015,0.486-0.025c0.101,0.408,0.175,0.798,0.292,1.173   c0.644,2.056,2.52,3.158,4.508,2.622c1.113-0.299,1.785-1.056,2.005-2.188c0.215-1.101-0.095-2.056-1.037-2.666   c-0.932-0.604-1.947-1.075-2.922-1.612c-0.523-0.287-1.049-0.577-1.556-0.893c-1.242-0.769-1.675-1.937-1.549-3.336   c0.127-1.404,0.808-2.474,2.127-3.018c1.715-0.706,3.371-0.655,4.872,0.651c0.211-0.386,0.415-0.76,0.634-1.162   c0.117-0.009,0.242-0.019,0.398-0.031c0,1.355,0,2.683,0,4.037c-0.146,0-0.303,0-0.469,0c-0.173-0.479-0.311-0.975-0.525-1.435   c-0.693-1.494-2.15-2.144-3.63-1.651c-1.192,0.396-1.953,1.614-1.786,2.848c0.075,0.56,0.33,1.03,0.793,1.33   c0.682,0.442,1.393,0.839,2.104,1.23c0.756,0.417,1.545,0.777,2.291,1.209c0.975,0.565,1.713,1.358,1.897,2.506   c0.451,2.816-1.275,4.707-3.662,4.973C131.027,103.11,129.702,102.716,128.501,101.742z"/>
	<path fill-rule="evenodd" clip-rule="evenodd" fill="#0D0D0D" d="M175.882,102.785c0-0.125,0-0.252,0-0.378   c0.333-0.056,0.646-0.093,0.948-0.162c0.367-0.086,0.571-0.331,0.58-0.714c0.01-0.483,0.016-0.967,0.016-1.449   c-0.004-1.967-0.006-3.934-0.018-5.9c-0.005-0.875-0.172-1.03-1.062-1.053c-0.131-0.002-0.263,0-0.42,0   c-0.013-0.125-0.024-0.237-0.037-0.363c0.968-0.218,1.918-0.432,2.927-0.661c0.071,0.533,0.147,1.104,0.23,1.73   c0.109-0.135,0.194-0.245,0.283-0.352c1.007-1.214,2.697-1.606,4.114-0.926c1.053,0.504,1.628,1.381,1.666,2.534   c0.066,1.98,0.074,3.963,0.088,5.944c0.01,1.09,0.137,1.245,1.246,1.324c0.066,0.004,0.133,0.009,0.239,0.016   c0.014,0.135,0.028,0.273,0.042,0.41c-1.584,0-3.143,0-4.726,0c-0.002-0.007-0.033-0.048-0.033-0.093   c-0.002-0.097,0.012-0.194,0.018-0.275c0.059-0.025,0.087-0.047,0.118-0.049c1.092-0.061,1.312-0.283,1.312-1.356   c-0.003-1.816-0.01-3.633-0.019-5.45c0-0.182-0.014-0.367-0.037-0.547c-0.142-1.097-0.748-1.7-1.757-1.752   c-1.102-0.056-2.068,0.614-2.288,1.608c-0.063,0.29-0.094,0.593-0.095,0.89c-0.008,1.818-0.005,3.635-0.005,5.452   c0,0.827,0.216,1.063,1.032,1.138c0.099,0.01,0.198,0.017,0.326,0.025c0.014,0.072,0.034,0.148,0.041,0.225   c0.005,0.065-0.004,0.13-0.008,0.186C179.038,102.785,177.48,102.785,175.882,102.785z"/>
	<path fill-rule="evenodd" clip-rule="evenodd" fill="#0D0D0D" d="M114.655,102.38c0,0.157,0,0.285,0,0.405   c-1.557,0-3.113,0-4.704,0c0-0.102,0-0.238,0-0.378c0.323-0.056,0.635-0.093,0.939-0.162c0.366-0.086,0.571-0.329,0.579-0.712   c0.011-0.484,0.017-0.967,0.016-1.451c-0.004-1.966-0.005-3.933-0.017-5.899c-0.006-0.876-0.173-1.031-1.061-1.054   c-0.134-0.002-0.266,0-0.421,0c-0.015-0.124-0.026-0.235-0.04-0.363c0.969-0.218,1.919-0.432,2.928-0.66   c0.072,0.534,0.147,1.103,0.231,1.729c0.107-0.136,0.193-0.245,0.282-0.352c1.008-1.214,2.695-1.606,4.114-0.926   c1.054,0.504,1.628,1.38,1.666,2.534c0.065,1.98,0.074,3.963,0.089,5.944c0.008,1.09,0.138,1.245,1.244,1.324   c0.067,0.004,0.134,0.009,0.229,0.014c0.017,0.069,0.037,0.146,0.046,0.223c0.006,0.064-0.006,0.13-0.01,0.189   c-1.566,0-3.122,0-4.713,0c0-0.104,0-0.241,0-0.373c0.049-0.019,0.076-0.042,0.106-0.044c1.095-0.061,1.313-0.28,1.312-1.356   c-0.001-1.816-0.01-3.633-0.019-5.45c-0.001-0.198-0.031-0.396-0.047-0.596c-0.127-1.678-1.777-1.956-2.769-1.534   c-0.896,0.382-1.346,1.081-1.356,2.028c-0.023,2.016-0.012,4.034-0.005,6.05c0.001,0.482,0.265,0.73,0.828,0.821   C114.269,102.359,114.436,102.361,114.655,102.38z"/>
	<path fill-rule="evenodd" clip-rule="evenodd" fill="#0D0D0D" d="M174.737,102.016c0,0.15,0,0.26,0,0.362   c-1,0.192-1.987,0.38-3.012,0.577c-0.05-0.563-0.099-1.123-0.154-1.747c-0.104,0.137-0.189,0.24-0.266,0.351   c-1.046,1.521-3.24,1.897-4.73,0.805c-0.822-0.603-1.143-1.463-1.159-2.435c-0.026-1.766-0.011-3.533-0.014-5.3   c0-0.117,0.001-0.234,0-0.35c-0.003-0.956-0.207-1.169-1.16-1.219c-0.115-0.007-0.229-0.019-0.374-0.03   c-0.004-0.122-0.01-0.231-0.015-0.345c1.115-0.195,2.205-0.385,3.337-0.583c0,0.176,0,0.357,0,0.538c0,2.318,0,4.635,0.001,6.953   c0,0.233,0,0.467,0.028,0.699c0.113,0.957,0.666,1.522,1.59,1.645c1.017,0.137,1.97-0.332,2.289-1.207   c0.163-0.442,0.234-0.938,0.244-1.411c0.032-1.716,0.023-3.433,0.024-5.149c0.001-0.817-0.239-1.064-1.062-1.112   c-0.146-0.008-0.294-0.02-0.462-0.03c0-0.125,0-0.233,0-0.339c1.098-0.194,2.187-0.386,3.319-0.586c0,0.185,0,0.365,0,0.545   c0,2.734,0,5.468,0,8.203c0,0.978,0.141,1.124,1.114,1.147C174.409,101.997,174.54,102.007,174.737,102.016z"/>
	<path fill-rule="evenodd" clip-rule="evenodd" fill="#0D0D0D" d="M55.392,88.895c0,0.243,0,0.423,0,0.603c0,3.735,0,7.47,0,11.204   c0,1.224,0.231,1.468,1.472,1.554c0.083,0.007,0.165,0.014,0.276,0.021c0.018,0.093,0.042,0.186,0.05,0.278   c0.006,0.079-0.006,0.157-0.009,0.199c-1.816,0-3.604,0-5.429,0c0-0.093,0-0.265,0-0.449c0.339-0.054,0.684-0.089,1.018-0.17   c0.506-0.12,0.74-0.373,0.742-0.866c0.009-4.1,0.005-8.202,0.005-12.353c-0.747-0.024-1.475-0.083-2.188,0.125   c-0.592,0.174-0.929,0.628-1.165,1.157c-0.188,0.422-0.331,0.865-0.504,1.326c-0.146,0.007-0.309,0.015-0.547,0.028   c0.199-1.118,0.393-2.202,0.589-3.307c3.203,0,6.379,0,9.584,0c0.196,1.086,0.39,2.162,0.59,3.276   c-0.196,0.009-0.355,0.017-0.519,0.024c-0.149-0.43-0.281-0.84-0.433-1.243c-0.366-0.972-1.065-1.447-2.112-1.411   C56.363,88.907,55.915,88.895,55.392,88.895z"/>
	<path fill-rule="evenodd" clip-rule="evenodd" fill="#0D0D0D" d="M108.469,97.358c-2.177,0-4.311,0-6.501,0   c0.028,1.269,0.071,2.508,0.686,3.641c0.529,0.977,1.395,1.336,2.467,1.244c1.025-0.088,1.731-0.643,2.135-1.57   c0.164-0.376,0.246-0.788,0.376-1.218c0.242,0,0.52,0,0.797,0c-0.048,1.863-1.399,3.252-2.89,3.505   c-2.766,0.468-4.901-1.139-5.26-3.988c-0.186-1.474-0.123-2.924,0.477-4.311c0.965-2.236,3.517-3.153,5.628-2.023   c0.732,0.391,1.263,0.972,1.58,1.738C108.349,95.313,108.478,96.295,108.469,97.358z M106.688,96.526   c-0.043-0.955-0.116-1.852-0.551-2.667c-0.752-1.407-2.445-1.478-3.315-0.141c-0.551,0.847-0.705,1.807-0.785,2.807   C103.588,96.526,105.115,96.526,106.688,96.526z"/>
	<path fill-rule="evenodd" clip-rule="evenodd" fill="#0D0D0D" d="M152.222,93.256c-0.511,0-0.973,0-1.454,0   c0-0.241,0-0.449,0-0.658c0.335-0.045,0.646-0.076,0.954-0.129c0.353-0.062,0.559-0.276,0.597-0.638   c0.056-0.53,0.093-1.061,0.17-1.587c0.274-1.891,2.478-2.983,4.169-2.077c0.644,0.343,0.992,0.988,0.864,1.595   c-0.095,0.445-0.414,0.64-0.949,0.579c-0.413-0.046-0.643-0.322-0.624-0.752c0.003-0.083,0.015-0.167,0.032-0.248   c0.141-0.628-0.328-1.038-1.022-0.779c-0.562,0.208-0.81,0.692-0.854,1.25c-0.068,0.861-0.083,1.727-0.121,2.621   c0.872,0,1.687,0,2.535,0c0,0.28,0,0.534,0,0.833c-0.818,0-1.628,0-2.501,0c0,0.22,0,0.396,0,0.574c0,2.384,0,4.767,0,7.151   c0,1.116,0.169,1.297,1.282,1.369c0.081,0.004,0.162,0.011,0.233,0.016c0.025,0.042,0.056,0.067,0.056,0.095   c0.005,0.114,0.003,0.226,0.003,0.315c-1.636,0-3.243,0-4.872,0c0-0.111,0-0.25,0-0.385c0.3-0.046,0.582-0.069,0.854-0.134   c0.494-0.116,0.626-0.286,0.667-0.793c0.005-0.067,0.003-0.134,0.003-0.199c0-2.551,0-5.102-0.001-7.653   C152.241,93.524,152.231,93.427,152.222,93.256z"/>
	<path fill-rule="evenodd" clip-rule="evenodd" fill="#0D0D0D" d="M76.712,99.97c0.778-2.03,1.556-4.062,2.333-6.092   c0.041-0.109,0.083-0.219,0.108-0.332c0.082-0.379-0.003-0.53-0.377-0.612c-0.256-0.057-0.521-0.08-0.804-0.121   c0-0.121,0-0.247,0-0.387c1.147,0,2.291,0,3.467,0c0.011,0.101,0.026,0.227,0.043,0.388c-0.112,0.02-0.203,0.039-0.296,0.051   c-0.727,0.105-1.169,0.499-1.436,1.204c-1.313,3.461-2.659,6.909-4,10.36c-0.144,0.371-0.31,0.735-0.505,1.081   c-0.639,1.139-1.696,1.658-3.013,1.505c0-0.359,0-0.717,0-1.088c0.799-0.012,1.558-0.104,2.077-0.724   c0.335-0.398,0.591-0.876,0.831-1.347c0.233-0.455,0.401-0.946,0.606-1.443c-0.906-2.408-1.818-4.83-2.73-7.251   c-0.158-0.418-0.335-0.832-0.473-1.258c-0.221-0.688-0.67-1.047-1.397-1.051c-0.081,0-0.162-0.015-0.263-0.027   c0-0.139,0-0.263,0-0.384c1.478,0,2.937,0,4.439,0c0.006,0.103,0.014,0.24,0.02,0.341c-0.395,0.101-0.75,0.192-1.208,0.31   c0.792,2.393,1.671,4.632,2.474,6.896C76.644,99.982,76.678,99.976,76.712,99.97z"/>
	<path fill-rule="evenodd" clip-rule="evenodd" fill="#0D0D0D" d="M35.558,102.746c1.975-3.255,3.91-6.447,5.875-9.686   c-0.997,0-1.939-0.024-2.878,0.008c-0.69,0.024-1.179,0.415-1.485,1.025c-0.194,0.384-0.364,0.779-0.548,1.177   c-0.151,0-0.293,0-0.471,0c0.165-0.946,0.325-1.859,0.489-2.8c2.409,0,4.818,0,7.286,0c-1.961,3.226-3.914,6.435-5.884,9.675   c1.138,0,2.2,0.035,3.258-0.017c0.525-0.022,0.917-0.4,1.18-0.839c0.306-0.509,0.553-1.054,0.856-1.642   c0.065-0.003,0.208-0.01,0.405-0.022c-0.187,1.059-0.369,2.081-0.553,3.12C40.59,102.746,38.114,102.746,35.558,102.746z"/>
	<path fill-rule="evenodd" clip-rule="evenodd" fill="#0D0D0D" d="M96.807,92.894c0.115-0.278,0.221-0.535,0.335-0.81   c0.132,0,0.257,0,0.401,0c0,1.114,0,2.226,0,3.359c-0.154,0-0.3,0-0.472,0c-0.071-0.328-0.118-0.675-0.224-1.004   c-0.452-1.414-2.014-1.975-3.279-1.216c-0.897,0.538-1.337,2.064-0.016,2.763c0.733,0.388,1.505,0.7,2.258,1.05   c0.316,0.147,0.636,0.29,0.941,0.458c1.72,0.946,1.961,3.274,0.479,4.577c-1.231,1.083-3.237,1.206-4.763,0.295   c-0.126-0.074-0.25-0.153-0.407-0.251c-0.175,0.304-0.339,0.587-0.518,0.893c-0.115,0-0.239,0-0.383,0c0-1.21,0-2.407,0-3.633   c0.152,0,0.309,0,0.381,0c0.251,0.607,0.417,1.229,0.742,1.75c0.755,1.206,2.417,1.528,3.561,0.756   c1.158-0.783,1.143-2.248-0.064-2.935c-0.706-0.401-1.466-0.706-2.201-1.054c-0.195-0.093-0.394-0.18-0.587-0.276   c-1.333-0.665-1.858-1.522-1.711-2.797c0.145-1.25,1.052-2.184,2.397-2.479c1.003-0.22,1.951-0.081,2.849,0.414   C96.611,92.802,96.7,92.84,96.807,92.894z"/>
	<path fill-rule="evenodd" clip-rule="evenodd" fill="#0D0D0D" d="M87.709,92.856c0.104-0.244,0.213-0.499,0.331-0.772   c0.129,0,0.253,0,0.398,0c0,1.114,0,2.226,0,3.358c-0.154,0-0.3,0-0.474,0c-0.072-0.326-0.12-0.671-0.224-1   c-0.484-1.546-2.361-2.074-3.552-1.006c-0.829,0.742-0.778,1.926,0.174,2.484c0.74,0.436,1.555,0.745,2.334,1.114   c0.345,0.164,0.696,0.318,1.026,0.508c1.539,0.887,1.846,2.961,0.648,4.281c-0.787,0.867-1.793,1.152-2.924,1.141   c-0.911-0.012-1.724-0.309-2.488-0.857c-0.18,0.311-0.343,0.594-0.522,0.901c-0.113,0-0.237,0-0.382,0c0-1.208,0-2.404,0-3.632   c0.15,0,0.306,0,0.479,0c0.145,0.821,0.373,1.608,1.018,2.21c0.851,0.794,2.176,0.938,3.141,0.325   c1.18-0.748,1.188-2.269-0.019-2.965c-0.659-0.38-1.375-0.664-2.065-0.991c-0.33-0.158-0.662-0.311-0.987-0.476   c-0.883-0.449-1.417-1.135-1.456-2.155c-0.041-1.086,0.355-1.964,1.299-2.529c1.24-0.741,2.525-0.733,3.816-0.115   c0.119,0.057,0.234,0.122,0.353,0.18C87.647,92.867,87.667,92.858,87.709,92.856z"/>
	<path fill-rule="evenodd" clip-rule="evenodd" fill="#0D0D0D" d="M31.889,93.255c-0.025,0.128-0.043,0.176-0.043,0.224   c0.01,2.314,0.021,4.628,0.034,6.943c0,0.083,0.021,0.165,0.024,0.247c0.031,1.196,0.836,1.701,2.038,1.266   c0.215-0.079,0.42-0.186,0.63-0.278c0,0.223,0,0.42,0,0.631c-0.85,0.612-1.792,0.803-2.795,0.617   c-1.067-0.197-1.693-0.977-1.743-2.188c-0.042-1.013-0.017-2.03-0.004-3.046c0.017-1.363,0.05-2.728,0.074-4.092   c0.001-0.08-0.01-0.161-0.021-0.3c-0.468,0-0.924,0-1.424,0c0.023-0.273,0.041-0.483,0.059-0.688   c1.941-0.239,2.188-1.812,2.614-3.256c0.09-0.005,0.17-0.013,0.251-0.013c0.081,0.001,0.162,0.009,0.277,0.017   c0,1.024,0,2.034,0,3.091c0.856,0,1.681,0,2.528,0c0,0.291,0,0.533,0,0.825C33.562,93.255,32.737,93.255,31.889,93.255z"/>
	<path fill-rule="evenodd" clip-rule="evenodd" fill="#0D0D0D" d="M160.599,93.253c-0.044,0.103-0.067,0.133-0.067,0.162   c0.018,2.416,0.009,4.832,0.067,7.246c0.029,1.235,0.808,1.703,1.976,1.286c0.231-0.081,0.454-0.19,0.723-0.304   c-0.019,0.241-0.035,0.436-0.052,0.649c-0.84,0.612-1.786,0.798-2.788,0.612c-1.079-0.202-1.716-1.007-1.743-2.244   c-0.033-1.432,0.013-2.865,0.019-4.298c0.004-1.011,0-2.022,0-3.081c-0.437,0-0.879,0-1.342,0c0-0.255,0-0.464,0-0.688   c1.925-0.225,2.199-1.776,2.618-3.245c0.164,0,0.337,0,0.545,0c0,1.031,0,2.041,0,3.091c0.86,0,1.687,0,2.531,0   c0,0.285,0,0.53,0,0.813C162.255,93.253,161.429,93.253,160.599,93.253z"/>
	<path fill-rule="evenodd" clip-rule="evenodd" fill="#0D0D0D" d="M143.668,101.656c0,0.239,0,0.42,0,0.631   c-0.853,0.607-1.806,0.813-2.827,0.609c-1.096-0.22-1.677-0.985-1.729-2.305c-0.042-1.015,0.004-2.031,0.007-3.048   c0.002-1.414,0.001-2.827,0.001-4.271c-0.408,0-0.853,0-1.322,0c0-0.239,0-0.448,0-0.688c1.456-0.099,1.99-1.145,2.373-2.335   c0.096-0.299,0.158-0.609,0.236-0.911c0.185,0,0.348,0,0.546,0c0,1.021,0,2.031,0,3.091c0.854,0,1.678,0,2.52,0   c0,0.295,0,0.54,0,0.831c-0.825,0-1.648,0-2.494,0c-0.014,0.174-0.033,0.304-0.033,0.434c-0.001,2.05-0.003,4.1,0.001,6.151   c0.001,0.283,0.025,0.565,0.043,0.848c0.073,1.16,0.816,1.657,1.92,1.279C143.157,101.884,143.396,101.768,143.668,101.656z"/>
	<path fill-rule="evenodd" clip-rule="evenodd" fill="#0D0D0D" d="M14.158,102.785c0.011-0.134,0.021-0.262,0.031-0.392   c0.271-0.034,0.52-0.049,0.761-0.1c0.615-0.13,0.766-0.313,0.775-0.963c0.011-0.767,0.003-1.533,0.003-2.299   c0-1.599,0-3.199,0-4.799c0-1.081-0.109-1.189-1.2-1.204c-0.083-0.001-0.167,0-0.292,0c-0.012-0.122-0.024-0.241-0.037-0.367   c0.974-0.176,1.917-0.347,2.896-0.524c0.072,0.571,0.142,1.135,0.216,1.722c0.297-0.361,0.542-0.713,0.841-1.009   c0.664-0.656,1.489-0.794,2.362-0.581c0.839,0.207,1.39,1.201,1.187,2.046c-0.122,0.507-0.58,0.799-1.101,0.704   c-0.528-0.098-0.757-0.452-0.666-1.034c0.107-0.692-0.273-1.009-0.949-0.788c-0.456,0.148-0.745,0.488-0.97,0.887   c-0.379,0.672-0.483,1.418-0.492,2.167c-0.021,1.733-0.009,3.466-0.005,5.199c0.001,0.492,0.155,0.683,0.634,0.815   c0.143,0.039,0.292,0.06,0.439,0.078c0.132,0.019,0.266,0.019,0.442,0.03c0.012,0.14,0.024,0.276,0.036,0.41   C17.429,102.785,15.823,102.785,14.158,102.785z"/>
	<path fill-rule="evenodd" clip-rule="evenodd" fill="#0D0D0D" d="M22.547,93.02c0-0.135,0-0.233,0-0.332   c1.086-0.193,2.159-0.386,3.292-0.588c0,0.168,0,0.343,0,0.52c0,2.685,0,5.369,0,8.053c0,1.497,0.063,1.568,1.524,1.716   c0.016,0.028,0.046,0.054,0.047,0.081c0.006,0.111,0.002,0.226,0.002,0.265c-0.838,0-1.649,0-2.46,0c-0.795,0-1.591,0-2.411,0   c0-0.058,0-0.194,0-0.348c0.266-0.025,0.516-0.03,0.757-0.076c0.576-0.114,0.76-0.339,0.765-0.925   c0.007-0.816,0.002-1.634,0.002-2.451c0-1.55,0-3.101-0.001-4.651c0-0.149,0-0.3-0.019-0.449c-0.058-0.471-0.208-0.644-0.675-0.73   C23.111,93.056,22.845,93.049,22.547,93.02z"/>
	<path fill-rule="evenodd" clip-rule="evenodd" fill="#0D0D0D" d="M144.597,92.688c1.107-0.198,2.185-0.391,3.298-0.59   c0,0.161,0,0.342,0,0.523c0,2.718,0,5.436,0,8.154c0,0.1-0.002,0.2,0,0.3c0.012,0.998,0.213,1.21,1.229,1.281   c0.098,0.007,0.196,0.014,0.329,0.023c0.008,0.15,0.015,0.287,0.019,0.405c-1.643,0-3.251,0-4.872,0c0-0.118,0-0.262,0-0.378   c0.34-0.056,0.656-0.085,0.96-0.164c0.359-0.093,0.551-0.337,0.551-0.729c-0.006-2.519,0.002-5.036-0.007-7.555   c-0.002-0.581-0.222-0.806-0.802-0.881c-0.213-0.028-0.431-0.03-0.683-0.045C144.611,92.914,144.604,92.792,144.597,92.688z"/>
	<path fill-rule="evenodd" clip-rule="evenodd" fill="#E40E12" d="M85.187,105.981c0.291,0,0.537,0,0.832,0   c0.383,1.574,0.768,3.151,1.151,4.729c0.021,0,0.042,0,0.064,0c0.377-1.572,0.754-3.145,1.133-4.725c0.298,0,0.577,0,0.902,0   c-0.512,2.06-1.016,4.084-1.52,6.113c-0.372,0-0.703,0-1.073,0c-0.348-1.37-0.694-2.736-1.042-4.103   c-0.023-0.004-0.046-0.009-0.07-0.014c-0.346,1.368-0.692,2.736-1.041,4.111c-0.361,0-0.692,0-1.075,0   c-0.5-2.018-1.002-4.047-1.512-6.105c0.324,0,0.603,0,0.921,0c0.374,1.572,0.748,3.146,1.124,4.724   c0.021,0.002,0.042,0.002,0.062,0.005C84.422,109.151,84.799,107.586,85.187,105.981z"/>
	<path fill-rule="evenodd" clip-rule="evenodd" fill="#E40E12" d="M183.521,111.032c0.167,0.041,0.332,0.097,0.5,0.125   c0.444,0.069,0.896,0.1,1.332,0.194c0.597,0.128,0.911,0.479,0.969,0.993c0.062,0.575-0.177,1.062-0.72,1.301   c-0.913,0.403-1.855,0.401-2.757-0.017c-0.866-0.403-0.89-1.375-0.085-1.896c0.055-0.037,0.108-0.077,0.164-0.114   c-0.504-0.549-0.457-0.732,0.241-1.164c-0.187-0.322-0.458-0.619-0.539-0.962c-0.238-1,0.436-1.823,1.488-1.832   c0.76-0.007,1.52,0.074,2.302,0.118c0,0.179,0,0.371,0,0.601c-0.243,0.021-0.483,0.042-0.737,0.062   c0.023,0.093,0.036,0.158,0.056,0.221c0.329,1.013-0.048,1.67-1.081,1.876c-0.229,0.046-0.465,0.056-0.688,0.113   c-0.163,0.044-0.311,0.14-0.466,0.211C183.506,110.918,183.514,110.974,183.521,111.032z M184.165,111.906   c-0.284,0.076-0.606,0.113-0.879,0.248c-0.406,0.206-0.396,0.651,0.017,0.849c0.58,0.276,1.194,0.288,1.784,0.035   c0.148-0.065,0.327-0.295,0.316-0.437c-0.015-0.171-0.181-0.396-0.341-0.473C184.802,112.004,184.493,111.98,184.165,111.906z    M184.252,108.36c-0.449-0.017-0.82,0.315-0.842,0.749c-0.021,0.455,0.293,0.772,0.779,0.784c0.488,0.014,0.829-0.283,0.839-0.727   C185.037,108.718,184.708,108.374,184.252,108.36z"/>
	<path fill-rule="evenodd" clip-rule="evenodd" fill="#E40E12" d="M160.314,108.11c0-0.754,0-1.429,0-2.132c0.313,0,0.589,0,0.928,0   c0,2.014,0,4.035,0,6.078c-0.226,0-0.488,0-0.775,0c-0.031-0.13-0.062-0.255-0.096-0.392c-0.04,0.025-0.087,0.042-0.12,0.074   c-0.719,0.665-1.826,0.562-2.405-0.228c-0.644-0.876-0.603-2.441,0.084-3.283C158.517,107.51,159.411,107.439,160.314,108.11z    M160.392,109.935c-0.095-0.352-0.139-0.726-0.291-1.043c-0.294-0.61-1.088-0.638-1.476-0.084c-0.355,0.513-0.374,1.612-0.034,2.15   c0.361,0.572,1.155,0.584,1.479-0.01C160.231,110.651,160.281,110.295,160.392,109.935z"/>
	<path fill-rule="evenodd" clip-rule="evenodd" fill="#E40E12" d="M126.676,112.063c-0.309,0-0.574,0-0.897,0   c0-0.739,0.001-1.465,0-2.191c0-0.199,0.009-0.4-0.01-0.598c-0.046-0.504-0.304-0.789-0.717-0.819   c-0.434-0.032-0.858,0.27-0.954,0.72c-0.053,0.257-0.056,0.528-0.059,0.795c-0.009,0.682-0.003,1.363-0.003,2.075   c-0.319,0-0.61,0-0.924,0c0-2.021,0-4.032,0-6.068c0.296,0,0.573,0,0.914,0c0,0.677,0,1.363,0,2.154   c0.501-0.415,0.979-0.557,1.514-0.48c0.653,0.093,1.104,0.499,1.126,1.139C126.703,109.87,126.676,110.948,126.676,112.063z"/>
	<path fill-rule="evenodd" clip-rule="evenodd" fill="#E40E12" d="M105.608,110.862c0.227,0.017,0.471,0.035,0.719,0.054   c-0.14,0.832-0.895,1.356-1.808,1.289c-1.029-0.079-1.713-0.661-1.859-1.686c-0.067-0.466-0.051-0.97,0.05-1.429   c0.21-0.951,0.99-1.521,1.92-1.496c0.904,0.026,1.541,0.571,1.761,1.543c0.068,0.299,0.066,0.614,0.103,0.979   c-1.011,0-1.956,0-2.894,0c-0.056,0.609,0.169,1.046,0.6,1.227C104.708,111.556,105.094,111.429,105.608,110.862z M105.501,109.376   c-0.108-0.69-0.399-1.006-0.89-1.022c-0.546-0.017-0.887,0.322-1.012,1.022C104.223,109.376,104.841,109.376,105.501,109.376z"/>
	<path fill-rule="evenodd" clip-rule="evenodd" fill="#E40E12" d="M165.797,110.858c0.229,0.021,0.473,0.041,0.719,0.064   c-0.056,0.891-1.044,1.336-1.785,1.277c-1.166-0.09-1.936-0.886-1.917-2.062c0.008-0.486,0.077-1.001,0.254-1.451   c0.294-0.754,1.06-1.152,1.847-1.09c0.805,0.064,1.379,0.515,1.619,1.328c0.105,0.36,0.131,0.74,0.206,1.186   c-1.039,0-1.998,0-2.952,0c-0.04,0.646,0.204,1.081,0.663,1.247C164.966,111.544,165.37,111.398,165.797,110.858z M165.705,109.379   c-0.124-0.754-0.464-1.076-1.025-1.023c-0.504,0.047-0.844,0.46-0.838,1.049c0.53,0,1.06,0,1.59-0.003   C165.512,109.401,165.592,109.39,165.705,109.379z"/>
	<path fill-rule="evenodd" clip-rule="evenodd" fill="#E40E12" d="M130.86,109.228c0.009-0.55-0.086-0.709-0.479-0.813   c-0.465-0.126-0.812,0.039-1.112,0.538c-0.266,0-0.541,0-0.846,0c0.065-0.638,0.379-1.067,0.972-1.192   c0.446-0.093,0.928-0.125,1.378-0.064c0.645,0.085,0.962,0.496,0.992,1.18c0.031,0.698,0.012,1.398,0.023,2.099   c0.006,0.346,0.033,0.691,0.053,1.069c-0.229,0-0.483,0-0.767,0c-0.038-0.104-0.083-0.223-0.134-0.359   c-0.401,0.447-0.907,0.535-1.463,0.473c-0.634-0.069-1.09-0.434-1.188-0.962c-0.115-0.605,0.141-1.186,0.718-1.452   c0.388-0.178,0.816-0.271,1.23-0.387C130.442,109.297,130.656,109.27,130.86,109.228z M130.854,109.877   c-0.391,0.103-0.766,0.167-1.117,0.295c-0.435,0.16-0.607,0.512-0.477,0.851c0.128,0.327,0.519,0.494,0.922,0.385   c0.374-0.1,0.615-0.341,0.666-0.724C130.881,110.44,130.854,110.19,130.854,109.877z"/>
	<path fill-rule="evenodd" clip-rule="evenodd" fill="#E40E12" d="M111.563,112.06c-0.306,0-0.584,0-0.914,0   c0-0.757,0-1.498,0-2.243c0-0.164,0.008-0.331-0.002-0.498c-0.027-0.529-0.287-0.842-0.709-0.863   c-0.481-0.025-0.922,0.32-0.964,0.819c-0.046,0.563-0.037,1.129-0.046,1.695c-0.006,0.348-0.002,0.695-0.002,1.075   c-0.3,0-0.575,0-0.93,0c0-1.421,0-2.841,0-4.287c0.195,0,0.453,0,0.766,0c0.037,0.1,0.087,0.234,0.142,0.38   c0.031-0.017,0.078-0.025,0.108-0.054c0.361-0.338,0.784-0.481,1.277-0.447c0.744,0.056,1.234,0.476,1.264,1.22   C111.594,109.916,111.563,110.979,111.563,112.06z"/>
	<path fill-rule="evenodd" clip-rule="evenodd" fill="#E40E12" d="M60.977,107.751c0.308,0,0.585,0,0.922,0   c0,0.726-0.001,1.435,0,2.145c0,0.232-0.004,0.466,0.018,0.698c0.044,0.471,0.249,0.7,0.648,0.754   c0.414,0.056,0.823-0.165,0.954-0.56c0.071-0.216,0.094-0.456,0.097-0.687c0.011-0.765,0.004-1.53,0.004-2.332   c0.297,0,0.585,0,0.941,0c0,1.412,0,2.833,0,4.28c-0.208,0-0.468,0-0.768,0c-0.043-0.086-0.099-0.197-0.154-0.309   c-0.041,0.015-0.078,0.017-0.097,0.035c-0.513,0.487-1.114,0.489-1.721,0.267c-0.583-0.216-0.828-0.707-0.839-1.299   C60.963,109.764,60.977,108.782,60.977,107.751z"/>
	<path fill-rule="evenodd" clip-rule="evenodd" fill="#E40E12" d="M148.468,109.877c0.041-0.909,0.333-1.69,1.23-2.104   c0.969-0.447,2.117-0.025,2.581,0.938c0.302,0.623,0.342,1.282,0.167,1.945c-0.263,0.992-1.101,1.614-2.052,1.544   c-1.015-0.076-1.76-0.805-1.896-1.864C148.479,110.188,148.479,110.039,148.468,109.877z M151.688,109.887   c-0.15-0.395-0.23-0.796-0.438-1.116c-0.358-0.552-1.078-0.542-1.485-0.032c-0.455,0.568-0.463,1.723-0.017,2.301   c0.414,0.535,1.154,0.547,1.516-0.025C151.468,110.691,151.543,110.287,151.688,109.887z"/>
	<path fill-rule="evenodd" clip-rule="evenodd" fill="#E40E12" d="M174.562,111.672c-0.542,0.577-1.17,0.619-1.814,0.369   c-0.667-0.258-0.854-0.823-0.845-1.496c0.015-0.914,0.004-1.827,0.004-2.778c0.304,0,0.59,0,0.904,0   c0,0.771-0.001,1.535,0.001,2.301c0,0.148,0.004,0.299,0.016,0.447c0.046,0.577,0.289,0.835,0.778,0.837   c0.475,0.003,0.866-0.326,0.901-0.823c0.036-0.512,0.015-1.029,0.017-1.547c0.001-0.398,0.001-0.797,0.001-1.224   c0.315,0,0.605,0,0.942,0c0,0.732,0,1.442,0,2.154c0,0.695,0,1.391,0,2.126c-0.181,0-0.436,0-0.754,0   C174.679,111.955,174.625,111.825,174.562,111.672z"/>
	<path fill-rule="evenodd" clip-rule="evenodd" fill="#E40E12" d="M93.051,110.677c0.278,0,0.541,0,0.752,0   c0.191,0.241,0.327,0.522,0.551,0.663c0.186,0.119,0.482,0.116,0.719,0.089c0.369-0.044,0.49-0.27,0.473-0.812   c-0.233-0.103-0.495-0.229-0.767-0.334c-0.309-0.121-0.633-0.202-0.938-0.327c-0.896-0.373-0.73-1.559-0.231-1.967   c0.585-0.478,1.736-0.526,2.344-0.067c0.353,0.27,0.527,0.619,0.493,1.081c-0.282,0-0.545,0-0.799,0   c-0.288-0.573-0.477-0.707-0.931-0.661c-0.289,0.03-0.524,0.15-0.578,0.457c-0.056,0.317,0.186,0.445,0.425,0.531   c0.375,0.134,0.766,0.225,1.138,0.363c0.591,0.226,0.82,0.555,0.819,1.116c-0.002,0.609-0.309,1.064-0.874,1.259   c-0.605,0.211-1.22,0.19-1.803-0.056C93.278,111.776,93.035,111.311,93.051,110.677z"/>
	<path fill-rule="evenodd" clip-rule="evenodd" fill="#E40E12" d="M101.253,109.01c-0.303,0-0.551,0-0.836,0   c-0.143-0.408-0.375-0.726-0.885-0.673c-0.31,0.033-0.565,0.145-0.622,0.471c-0.054,0.313,0.198,0.437,0.436,0.522   c0.39,0.142,0.791,0.25,1.183,0.387c0.493,0.172,0.75,0.513,0.762,1.049c0.013,0.574-0.204,1.027-0.731,1.252   c-0.671,0.283-1.371,0.269-2.03-0.054c-0.516-0.253-0.713-0.702-0.682-1.291c0.289,0,0.549,0,0.808,0   c0.244,0.663,0.595,0.895,1.182,0.77c0.281-0.061,0.488-0.211,0.523-0.524c0.033-0.299-0.178-0.41-0.403-0.491   c-0.375-0.135-0.761-0.239-1.134-0.378c-0.594-0.228-0.844-0.566-0.846-1.102c-0.003-0.573,0.294-0.992,0.866-1.211   c0.484-0.183,0.978-0.183,1.467-0.025C100.917,107.908,101.22,108.342,101.253,109.01z"/>
	<path fill-rule="evenodd" clip-rule="evenodd" fill="#E40E12" d="M116.506,109.003c-0.287,0-0.549,0-0.802,0   c-0.316-0.604-0.549-0.749-1.034-0.649c-0.267,0.056-0.505,0.209-0.473,0.487c0.019,0.167,0.205,0.375,0.368,0.452   c0.361,0.162,0.759,0.243,1.133,0.378c0.61,0.216,0.873,0.563,0.878,1.129c0.004,0.624-0.311,1.081-0.916,1.28   c-0.589,0.197-1.188,0.176-1.758-0.062c-0.563-0.239-0.798-0.71-0.818-1.338c0.287,0,0.549,0,0.779,0   c0.162,0.225,0.285,0.489,0.489,0.646c0.15,0.114,0.408,0.118,0.619,0.121c0.386,0.004,0.617-0.202,0.695-0.703   c-0.171-0.113-0.365-0.283-0.59-0.375c-0.336-0.142-0.7-0.214-1.042-0.344c-0.475-0.181-0.772-0.508-0.783-1.046   s0.218-0.937,0.701-1.166c0.64-0.302,1.29-0.304,1.918,0.03C116.321,108.082,116.518,108.479,116.506,109.003z"/>
	<path fill-rule="evenodd" clip-rule="evenodd" fill="#E40E12" d="M143.736,109.005c-0.309,0-0.557,0-0.833,0   c-0.141-0.429-0.392-0.719-0.901-0.668c-0.3,0.033-0.522,0.163-0.592,0.448c-0.076,0.317,0.175,0.447,0.412,0.535   c0.373,0.137,0.764,0.228,1.139,0.366c0.604,0.223,0.843,0.568,0.831,1.155c-0.01,0.591-0.302,1.022-0.853,1.22   c-0.621,0.223-1.25,0.197-1.848-0.062c-0.545-0.239-0.77-0.703-0.782-1.315c0.284,0,0.562,0,0.844,0   c0.245,0.649,0.589,0.875,1.176,0.759c0.289-0.058,0.49-0.223,0.527-0.521c0.036-0.285-0.162-0.413-0.4-0.492   c-0.378-0.125-0.761-0.236-1.133-0.378c-0.621-0.238-0.843-0.554-0.836-1.15c0.006-0.557,0.285-0.945,0.85-1.161   c0.519-0.2,1.044-0.19,1.56,0.007C143.45,107.959,143.723,108.374,143.736,109.005z"/>
	<path fill-rule="evenodd" clip-rule="evenodd" fill="#E40E12" d="M177.274,107.755c0.218,0,0.478,0,0.765,0   c0.041,0.114,0.084,0.228,0.132,0.359c0.061-0.025,0.11-0.034,0.144-0.062c0.313-0.271,0.67-0.417,1.091-0.42   c0.884-0.002,1.41,0.487,1.423,1.373c0.015,0.997,0.004,1.994,0.004,3.031c-0.291,0-0.563,0-0.905,0c0-0.299,0.002-0.607,0-0.918   c-0.004-0.617,0-1.231-0.019-1.849c-0.015-0.447-0.25-0.744-0.6-0.81c-0.389-0.071-0.822,0.146-0.979,0.529   c-0.073,0.178-0.109,0.385-0.111,0.579c-0.012,0.812-0.006,1.626-0.006,2.473c-0.321,0-0.593,0-0.938,0   C177.274,110.628,177.274,109.221,177.274,107.755z"/>
	<path fill-rule="evenodd" clip-rule="evenodd" fill="#E40E12" d="M121.494,109.153c-0.278,0-0.556,0-0.826,0   c-0.262-0.633-0.483-0.825-0.896-0.788c-0.456,0.039-0.831,0.401-0.888,0.997c-0.043,0.452-0.02,0.928,0.082,1.37   c0.112,0.494,0.471,0.715,0.904,0.7c0.404-0.014,0.609-0.204,0.778-0.714c0.015-0.046,0.026-0.095,0.045-0.157   c0.278,0,0.554,0,0.829,0c0.003,1.502-1.411,1.861-2.354,1.525c-0.594-0.211-0.973-0.636-1.163-1.22   c-0.199-0.614-0.205-1.247-0.015-1.869c0.328-1.071,1.308-1.614,2.393-1.336C121.046,107.832,121.464,108.386,121.494,109.153z"/>
	<path fill-rule="evenodd" clip-rule="evenodd" fill="#E40E12" d="M135.822,106.002c0,0.251,0,0.48,0,0.647   c-0.356,0.039-0.759-0.026-0.992,0.144c-0.187,0.135-0.168,0.552-0.259,0.916c0.421,0,0.729,0,1.068,0c0,0.253,0,0.461,0,0.73   c-0.304,0-0.627,0-0.992,0c0,1.231,0,2.407,0,3.61c-0.334,0-0.627,0-0.956,0c0-1.199,0-2.377,0-3.576   c-0.197-0.014-0.359-0.022-0.557-0.037c0-0.223,0-0.444,0-0.684c0.165-0.014,0.329-0.028,0.537-0.047   c0.062-0.623-0.063-1.328,0.607-1.729C134.637,105.766,135.183,105.774,135.822,106.002z"/>
	<path fill-rule="evenodd" clip-rule="evenodd" fill="#E40E12" d="M138.11,108.426c0,0.864-0.013,1.644,0.006,2.423   c0.009,0.413,0.211,0.552,0.627,0.491c0.13-0.021,0.256-0.062,0.427-0.106c0,0.258,0,0.494,0,0.786   c-0.187,0.042-0.391,0.111-0.598,0.13c-1.014,0.088-1.415-0.294-1.408-1.308c0.006-0.779,0.001-1.559,0.001-2.365   c-0.163-0.012-0.355-0.028-0.563-0.042c0-0.231,0-0.442,0-0.68c0.201-0.016,0.395-0.032,0.638-0.053   c0.022-0.396,0.047-0.789,0.071-1.209c0.278,0,0.551,0,0.863,0c0,0.404,0,0.796,0,1.223c0.315,0,0.593,0,0.902,0   c0,0.239,0,0.447,0,0.71C138.809,108.426,138.523,108.426,138.11,108.426z"/>
	<path fill-rule="evenodd" clip-rule="evenodd" fill="#E40E12" d="M57.152,108.43c0-0.248,0-0.445,0-0.672   c0.171-0.015,0.331-0.028,0.537-0.047c0.09-0.624-0.088-1.38,0.654-1.746c0.478-0.236,0.969-0.157,1.474,0.017   c0,0.245,0,0.489,0,0.668c-0.343,0.039-0.746-0.026-0.97,0.144c-0.192,0.146-0.18,0.561-0.275,0.923c0.414,0,0.739,0,1.095,0   c0,0.258,0,0.466,0,0.732c-0.324,0-0.646,0-1.011,0c0,1.229,0,2.405,0,3.602c-0.321,0-0.596,0-0.918,0c0-1.181,0-2.354,0-3.562   C57.524,108.467,57.352,108.448,57.152,108.43z"/>
	<path fill-rule="evenodd" clip-rule="evenodd" fill="#E40E12" d="M146.338,107.732c0.445,0,0.742,0,1.075,0c0,0.233,0,0.44,0,0.704   c-0.308,0-0.63,0-0.995,0c0,1.229,0,2.405,0,3.608c-0.317,0-0.593,0-0.907,0c0-1.171,0-2.347,0-3.557   c-0.21-0.019-0.384-0.035-0.59-0.056c0-0.219,0-0.44,0-0.685c0.176-0.009,0.337-0.016,0.543-0.027   c0.066-0.638-0.101-1.385,0.637-1.756c0.476-0.239,0.968-0.157,1.472,0.019c0,0.248,0,0.491,0,0.661   c-0.349,0.042-0.749-0.019-0.976,0.153C146.409,106.941,146.43,107.356,146.338,107.732z"/>
	<path fill-rule="evenodd" clip-rule="evenodd" fill="#E40E12" d="M67.302,112.053c-0.323,0-0.6,0-0.922,0c0-1.427,0-2.849,0-4.295   c0.253,0,0.527,0,0.824,0c0.022,0.204,0.042,0.385,0.073,0.672c0.4-0.54,0.812-0.972,1.536-0.724c0,0.278,0,0.568,0,0.905   c-0.097-0.033-0.195-0.07-0.295-0.098c-0.455-0.133-0.817-0.014-0.989,0.42c-0.137,0.345-0.198,0.734-0.217,1.11   C67.278,110.705,67.302,111.368,67.302,112.053z"/>
	<path fill-rule="evenodd" clip-rule="evenodd" fill="#E40E12" d="M169.062,107.765c0.024,0.231,0.044,0.429,0.071,0.69   c0.377-0.574,0.793-1.001,1.547-0.737c0,0.29,0,0.582,0,0.896c-0.114-0.035-0.221-0.069-0.328-0.1   c-0.432-0.121-0.78-0.014-0.958,0.39c-0.136,0.309-0.205,0.665-0.221,1.004c-0.032,0.695-0.009,1.394-0.009,2.131   c-0.325,0-0.627,0-0.957,0c0-1.417,0-2.826,0-4.273C168.468,107.765,168.738,107.765,169.062,107.765z"/>
	<path fill-rule="evenodd" clip-rule="evenodd" fill="#E40E12" d="M154.916,112.057c-0.321,0-0.583,0-0.899,0   c0-1.414,0-2.834,0-4.287c0.225,0,0.498,0,0.807,0c0.03,0.192,0.061,0.387,0.104,0.658c0.377-0.562,0.802-0.967,1.54-0.71   c0,0.288,0,0.578,0,0.902c-0.099-0.032-0.201-0.064-0.302-0.098c-0.462-0.144-0.854-0.016-1.026,0.43   c-0.135,0.348-0.193,0.737-0.213,1.11C154.893,110.71,154.916,111.356,154.916,112.057z"/>
	<path fill-rule="evenodd" clip-rule="evenodd" fill="#E40E12" d="M145.773,89.224c-0.002-0.741,0.45-1.208,1.159-1.203   c0.686,0.007,1.177,0.514,1.176,1.215c-0.002,0.709-0.484,1.206-1.176,1.207C146.257,90.443,145.775,89.938,145.773,89.224z"/>
	<path fill-rule="evenodd" clip-rule="evenodd" fill="#0D0D0D" d="M23.717,89.198c0.006-0.718,0.488-1.192,1.193-1.176   c0.67,0.015,1.171,0.554,1.153,1.242c-0.019,0.706-0.519,1.193-1.209,1.178C24.178,90.428,23.711,89.917,23.717,89.198z"/>
	<path fill-rule="evenodd" clip-rule="evenodd" fill="#E40E12" d="M91.502,107.76c0,1.438,0,2.848,0,4.285c-0.303,0-0.596,0-0.916,0   c0-1.414,0-2.836,0-4.285C90.867,107.76,91.157,107.76,91.502,107.76z"/>
	<path fill-rule="evenodd" clip-rule="evenodd" fill="#118C54" d="M129.131,78.029c-0.015-0.278-0.026-0.507-0.042-0.814   c1.071,0.61,2.077,1.183,3.108,1.771c0,0.242,0,0.481,0,0.792C131.158,79.185,130.155,78.613,129.131,78.029z"/>
	<path fill-rule="evenodd" clip-rule="evenodd" fill="#118C54" d="M137.376,82.094c-0.016,0.245-0.032,0.467-0.051,0.76   c-1.07-0.633-2.087-1.237-3.102-1.838c0.02-0.251,0.036-0.463,0.059-0.752C135.333,80.886,136.348,81.485,137.376,82.094z"/>
	<path fill-rule="evenodd" clip-rule="evenodd" fill="#118C54" d="M105.525,132.41c1.041,0.693,2.033,1.354,3.064,2.041   c-0.05,0.204-0.099,0.408-0.167,0.688c-1.045-0.695-2.048-1.363-3.078-2.05C105.401,132.874,105.454,132.675,105.525,132.41z"/>
	<path fill-rule="evenodd" clip-rule="evenodd" fill="#118C54" d="M110.496,136.452c0.049-0.25,0.086-0.442,0.136-0.704   c1.037,0.667,2.035,1.31,3.069,1.976c-0.039,0.22-0.076,0.438-0.123,0.719C112.517,137.756,111.516,137.111,110.496,136.452z"/>
	<path fill-rule="evenodd" clip-rule="evenodd" fill="#118C54" d="M118.822,140.939c-0.026,0.244-0.05,0.469-0.079,0.747   c-1.055-0.658-2.066-1.292-3.085-1.927c0.021-0.234,0.038-0.445,0.063-0.749C116.798,139.681,117.805,140.307,118.822,140.939z"/>
	<path fill-rule="evenodd" clip-rule="evenodd" fill="#118C54" d="M121.825,73.197c0.034,0.267,0.066,0.511,0.109,0.848   c-1.062-0.559-2.062-1.087-3.087-1.628c-0.032-0.246-0.062-0.49-0.107-0.843C119.818,72.142,120.817,72.667,121.825,73.197z"/>
	<path fill-rule="evenodd" clip-rule="evenodd" fill="#118C54" d="M101.391,63.145c0.093,0.3,0.175,0.563,0.287,0.931   c-1.058-0.466-2.034-0.895-3.024-1.331c-0.091-0.289-0.18-0.568-0.297-0.937C99.408,62.27,100.384,62.7,101.391,63.145z"/>
	<path fill-rule="evenodd" clip-rule="evenodd" fill="#118C54" d="M142.69,85.395c-0.033,0.229-0.063,0.437-0.106,0.726   c-1.049-0.654-2.05-1.277-3.087-1.925c0.031-0.22,0.062-0.443,0.104-0.726C140.655,84.127,141.662,84.755,142.69,85.395z"/>
	<path fill-rule="evenodd" clip-rule="evenodd" fill="#118C54" d="M106.697,66.349c-1.061-0.49-2.044-0.946-3.051-1.412   c-0.074-0.269-0.146-0.537-0.249-0.912c1.062,0.489,2.042,0.941,3.041,1.402C106.518,65.706,106.597,65.987,106.697,66.349z"/>
	<path fill-rule="evenodd" clip-rule="evenodd" fill="#118C54" d="M111.555,67.908c0.061,0.262,0.119,0.516,0.206,0.892   c-1.07-0.516-2.056-0.99-3.065-1.478c-0.06-0.265-0.119-0.533-0.199-0.895C109.559,66.943,110.549,67.422,111.555,67.908z"/>
	<path fill-rule="evenodd" clip-rule="evenodd" fill="#118C54" d="M116.674,70.492c0.05,0.283,0.095,0.538,0.153,0.872   c-1.062-0.538-2.049-1.039-3.064-1.552c-0.051-0.25-0.103-0.506-0.178-0.878C114.65,69.471,115.641,69.97,116.674,70.492z"/>
	<path fill-rule="evenodd" clip-rule="evenodd" fill="#118C54" d="M50.148,83.882c-0.609-0.863-1.2-1.7-1.838-2.604   c0.402,0.053,0.711,0.096,1.036,0.14c0.596,0.844,1.189,1.682,1.831,2.591C50.792,83.962,50.49,83.923,50.148,83.882z"/>
	<path fill-rule="evenodd" clip-rule="evenodd" fill="#118C54" d="M127.179,76.146c0,0.29,0,0.516,0,0.791   c-1.046-0.587-2.054-1.153-3.077-1.728c0-0.25,0-0.493,0-0.786C125.144,75.006,126.152,75.571,127.179,76.146z"/>
	<path fill-rule="evenodd" clip-rule="evenodd" fill="#118C54" d="M89.986,122.133c0.118-0.199,0.209-0.354,0.334-0.568   c0.996,0.74,1.973,1.466,2.983,2.217c-0.098,0.184-0.188,0.351-0.312,0.585C91.989,123.622,91.014,122.896,89.986,122.133z"/>
	<path fill-rule="evenodd" clip-rule="evenodd" fill="#118C54" d="M65.098,52.407c-0.232-0.342-0.443-0.653-0.713-1.048   c0.909,0.138,1.72,0.262,2.556,0.39c0.223,0.33,0.451,0.667,0.717,1.061C66.76,52.668,65.942,52.54,65.098,52.407z"/>
	<path fill-rule="evenodd" clip-rule="evenodd" fill="#118C54" d="M88.567,58.748c-0.125-0.303-0.241-0.587-0.402-0.979   c1.046,0.39,1.989,0.74,2.933,1.091c0.129,0.304,0.251,0.59,0.417,0.979C90.489,59.459,89.551,59.112,88.567,58.748z"/>
	<path fill-rule="evenodd" clip-rule="evenodd" fill="#118C54" d="M81.798,56.429c-1.004-0.313-1.904-0.593-2.833-0.881   c-0.156-0.294-0.317-0.601-0.519-0.983c0.187,0.043,0.318,0.065,0.443,0.104c0.603,0.184,1.198,0.398,1.808,0.552   c0.442,0.11,0.745,0.322,0.881,0.764C81.615,56.106,81.691,56.216,81.798,56.429z"/>
	<path fill-rule="evenodd" clip-rule="evenodd" fill="#118C54" d="M103.517,131.001c-0.07,0.225-0.128,0.41-0.206,0.658   c-1.034-0.712-2.038-1.4-3.058-2.101c0.071-0.214,0.132-0.396,0.217-0.652C101.496,129.611,102.482,130.289,103.517,131.001z"/>
	<path fill-rule="evenodd" clip-rule="evenodd" fill="#118C54" d="M95.188,125.957c0.088-0.218,0.155-0.385,0.252-0.626   c1.02,0.724,2.012,1.426,3.043,2.158c-0.087,0.2-0.169,0.388-0.27,0.617C97.193,127.383,96.208,126.683,95.188,125.957z"/>
	<path fill-rule="evenodd" clip-rule="evenodd" fill="#118C54" d="M80.022,114.302c0.164-0.181,0.286-0.313,0.441-0.484   c0.97,0.776,1.924,1.539,2.91,2.33c-0.141,0.162-0.265,0.309-0.43,0.496C81.966,115.86,81.012,115.095,80.022,114.302z"/>
	<path fill-rule="evenodd" clip-rule="evenodd" fill="#118C54" d="M71.606,52.71c0.223,0.356,0.406,0.649,0.653,1.043   c-0.967-0.208-1.818-0.391-2.68-0.575c-0.206-0.331-0.407-0.653-0.653-1.047C69.875,52.337,70.745,52.524,71.606,52.71z"/>
	<path fill-rule="evenodd" clip-rule="evenodd" fill="#118C54" d="M83.767,57.062c-0.147-0.319-0.279-0.603-0.459-0.993   c1.01,0.349,1.938,0.669,2.898,1.001c0.138,0.291,0.282,0.596,0.473,1.001C85.655,57.717,84.725,57.395,83.767,57.062z"/>
	<path fill-rule="evenodd" clip-rule="evenodd" fill="#118C54" d="M93.577,60.677c-0.109-0.293-0.213-0.57-0.359-0.961   c1.053,0.427,2.02,0.818,2.998,1.215c0.1,0.283,0.198,0.558,0.336,0.949C95.508,61.457,94.565,61.076,93.577,60.677z"/>
	<path fill-rule="evenodd" clip-rule="evenodd" fill="#118C54" d="M124.071,144.087c0,0.267,0,0.479,0,0.786   c-1.051-0.619-2.055-1.211-3.075-1.813c0-0.229,0-0.459,0-0.786C122.048,142.893,123.052,143.483,124.071,144.087z"/>
	<path fill-rule="evenodd" clip-rule="evenodd" fill="#118C54" d="M84.897,118.216c0.151-0.189,0.271-0.343,0.407-0.515   c0.996,0.777,1.961,1.53,2.942,2.296c-0.135,0.181-0.244,0.324-0.392,0.524C86.864,119.749,85.891,118.99,84.897,118.216z"/>
	<path fill-rule="evenodd" clip-rule="evenodd" fill="#118C54" d="M62.457,51.084c0.259,0.351,0.483,0.654,0.783,1.06   c-0.877-0.074-1.641-0.138-2.415-0.203c-0.246-0.326-0.484-0.643-0.798-1.059C60.89,50.955,61.666,51.02,62.457,51.084z"/>
	<path fill-rule="evenodd" clip-rule="evenodd" fill="#118C54" d="M73.713,53.201c0.951,0.26,1.843,0.502,2.734,0.746   c0.178,0.316,0.348,0.618,0.573,1.017c-0.522-0.134-0.948-0.245-1.373-0.356c-0.241-0.064-0.478-0.166-0.722-0.19   C74.208,54.349,73.968,53.826,73.713,53.201z"/>
	<path fill-rule="evenodd" clip-rule="evenodd" fill="#118C54" d="M77.965,112.588c-0.974-0.818-1.901-1.598-2.857-2.4   c0.183-0.157,0.331-0.285,0.502-0.434c0.941,0.789,1.873,1.567,2.857,2.391C78.3,112.293,78.147,112.428,77.965,112.588z"/>
	<path fill-rule="evenodd" clip-rule="evenodd" fill="#118C54" d="M45.45,76.411c0.332,0.08,0.665,0.161,0.993,0.24   c0.484,0.814,0.957,1.609,1.493,2.511c-0.425-0.091-0.746-0.161-1.097-0.236c-0.479-0.804-0.96-1.611-1.443-2.417   C45.415,76.476,45.433,76.444,45.45,76.411z"/>
	<path fill-rule="evenodd" clip-rule="evenodd" fill="#118C54" d="M43.087,69.576c-0.459-0.21-0.82-0.374-1.227-0.559   c-0.19-0.691-0.387-1.404-0.615-2.231c0.464,0.215,0.844,0.39,1.246,0.575C42.682,68.069,42.873,68.781,43.087,69.576z"/>
	<path fill-rule="evenodd" clip-rule="evenodd" fill="#118C54" d="M41.894,63.591c0.09,0.682,0.175,1.318,0.273,2.052   c-0.458-0.237-0.842-0.434-1.247-0.643c-0.09-0.655-0.181-1.306-0.286-2.066C41.095,63.174,41.481,63.376,41.894,63.591z"/>
	<path fill-rule="evenodd" clip-rule="evenodd" fill="#118C54" d="M44.99,74.216c-0.354-0.127-0.708-0.254-1.079-0.389   c-0.337-0.756-0.673-1.511-1.062-2.384c0.455,0.151,0.802,0.266,1.177,0.391c0.343,0.766,0.687,1.535,1.031,2.304   C45.035,74.165,45.013,74.191,44.99,74.216z"/>
	<path fill-rule="evenodd" clip-rule="evenodd" fill="#118C54" d="M48.6,51.712c0.606-0.156,1.193-0.306,1.653-0.425   c0.42,0.36,0.77,0.658,1.172,1.001c-0.655,0.168-1.229,0.316-1.825,0.471C49.274,52.417,48.957,52.084,48.6,51.712z"/>
	<path fill-rule="evenodd" clip-rule="evenodd" fill="#118C54" d="M55.988,50.739c0.789,0,1.498,0,2.261,0   c0.248,0.305,0.518,0.637,0.835,1.029c-0.79,0-1.506,0-2.268,0C56.563,51.453,56.297,51.123,55.988,50.739z"/>
	<path fill-rule="evenodd" clip-rule="evenodd" fill="#118C54" d="M54.048,50.753c0.307,0.338,0.604,0.667,0.958,1.057   c-0.746,0.087-1.411,0.165-2.062,0.24c-0.315-0.352-0.599-0.669-0.94-1.049C52.711,50.915,53.348,50.838,54.048,50.753z"/>
	<path fill-rule="evenodd" clip-rule="evenodd" fill="#118C54" d="M40.925,59.177c0.446,0.282,0.823,0.521,1.245,0.787   c-0.082,0.555-0.165,1.119-0.258,1.749c-0.442-0.277-0.83-0.522-1.247-0.784C40.749,60.363,40.83,59.811,40.925,59.177z"/>
	<path fill-rule="evenodd" clip-rule="evenodd" fill="#118C54" d="M42.173,56.156c0.423,0.31,0.805,0.59,1.216,0.89   c-0.252,0.476-0.49,0.921-0.752,1.415c-0.416-0.302-0.797-0.581-1.218-0.888C41.668,57.107,41.912,56.649,42.173,56.156z"/>
	<path fill-rule="evenodd" clip-rule="evenodd" fill="#118C54" d="M46.613,54.04c-0.371-0.337-0.713-0.649-1.107-1.009   c0.507-0.266,0.984-0.516,1.516-0.794c0.346,0.317,0.696,0.636,1.1,1.005C47.597,53.52,47.125,53.77,46.613,54.04z"/>
	<path fill-rule="evenodd" clip-rule="evenodd" fill="#118C54" d="M44.356,53.837c0.403,0.341,0.754,0.639,1.147,0.971   c-0.408,0.356-0.79,0.688-1.206,1.052c-0.387-0.321-0.763-0.633-1.168-0.97C43.559,54.522,43.945,54.191,44.356,53.837z"/>
	<path fill-rule="evenodd" clip-rule="evenodd" fill="#E40E12" d="M91.02,107.036c-0.33,0-0.558-0.229-0.562-0.563   c-0.004-0.353,0.241-0.609,0.582-0.605c0.325,0.003,0.557,0.237,0.567,0.57C91.617,106.781,91.366,107.039,91.02,107.036z"/>
	<path fill-rule="evenodd" clip-rule="evenodd" fill="#E40E12" d="M61.825,105.897c0.314-0.009,0.568,0.241,0.572,0.56   c0.003,0.319-0.246,0.579-0.556,0.579c-0.303,0-0.58-0.267-0.585-0.563C61.252,106.167,61.51,105.904,61.825,105.897z"/>
	<path fill-rule="evenodd" clip-rule="evenodd" fill="#E40E12" d="M150.148,106.468c-0.005,0.3-0.283,0.573-0.576,0.568   c-0.3-0.005-0.561-0.273-0.562-0.579c-0.003-0.309,0.26-0.564,0.571-0.56C149.894,105.9,150.153,106.164,150.148,106.468z"/>
	<path fill-rule="evenodd" clip-rule="evenodd" fill="#E40E12" d="M63.125,106.464c0-0.313,0.252-0.568,0.566-0.568   c0.316-0.003,0.561,0.246,0.56,0.568c-0.001,0.319-0.251,0.575-0.559,0.572C63.385,107.031,63.125,106.77,63.125,106.464z"/>
	<path fill-rule="evenodd" clip-rule="evenodd" fill="#E40E12" d="M151.998,106.464c-0.006,0.319-0.256,0.572-0.565,0.572   c-0.303,0-0.554-0.265-0.551-0.579c0.004-0.334,0.235-0.566,0.558-0.562C151.77,105.9,152.001,106.139,151.998,106.464z"/>
	<path fill-rule="evenodd" clip-rule="evenodd" fill="none" d="M191.81,102.319c0.778,0.146,1.569,0.248,2.33,0.457   c0.55,0.15,1.026,0.478,1.188,1.1c0.204,0.776-0.131,1.53-0.898,1.964c-0.651,0.366-1.368,0.498-2.104,0.54   c-0.906,0.051-1.799-0.051-2.623-0.442c-0.363-0.172-0.721-0.427-0.982-0.73c-0.62-0.72-0.475-1.714,0.35-2.181   c0.492-0.278,1.074-0.412,1.633-0.549c0.349-0.086,0.726-0.056,1.091-0.079C191.799,102.373,191.804,102.345,191.81,102.319z"/>
	<path fill-rule="evenodd" clip-rule="evenodd" fill="none" d="M184.165,111.906c0.328,0.074,0.637,0.098,0.897,0.223   c0.16,0.076,0.326,0.302,0.341,0.473c0.011,0.142-0.168,0.371-0.316,0.437c-0.59,0.253-1.204,0.241-1.784-0.035   c-0.413-0.197-0.423-0.643-0.017-0.849C183.559,112.02,183.881,111.982,184.165,111.906z"/>
</g>
</svg>