<!-- Generator: Adobe Illustrator 16.0.0, SVG Export Plug-In . SVG Version: 6.00 Build 0)  --><svg xmlns="http://www.w3.org/2000/svg" xmlns:xlink="http://www.w3.org/1999/xlink" version="1.1" id="Ebene_1" x="0px" y="0px" width="200px" height="200px" viewBox="0 0 200 200" enable-background="new 0 0 200 200" xml:space="preserve">
<g>
	<path d="M83.177,72.22h-1.926l-1.246-4.437h-4.2l-1.266,4.437h-1.767l4.517-13.859h1.372L83.177,72.22z M79.622,66.458   l-1.088-3.799c-0.145-0.507-0.27-0.995-0.375-1.456c-0.112-0.462-0.171-0.852-0.185-1.154h-0.04   c-0.013,0.303-0.072,0.686-0.191,1.134c-0.112,0.448-0.244,0.923-0.389,1.438l-1.147,3.838H79.622z M91.294,72.22h-1.49v-1.088   h-0.04c-0.04,0.086-0.126,0.198-0.257,0.356c-0.139,0.151-0.304,0.296-0.515,0.441c-0.205,0.139-0.461,0.264-0.751,0.369   c-0.296,0.105-0.627,0.158-0.983,0.158c-0.428,0-0.817-0.06-1.153-0.185c-0.343-0.132-0.633-0.336-0.877-0.612   c-0.244-0.284-0.428-0.647-0.554-1.101c-0.125-0.448-0.191-0.996-0.191-1.655v-6.323h1.628v6.204c0,0.805,0.132,1.378,0.389,1.715   c0.263,0.343,0.666,0.513,1.22,0.513c0.468,0,0.864-0.118,1.18-0.348c0.323-0.237,0.58-0.468,0.765-0.692v-7.392h1.629V72.22z    M97.94,64.525c-0.106-0.118-0.297-0.282-0.581-0.494c-0.284-0.204-0.646-0.31-1.107-0.31c-0.429,0-0.752,0.099-0.982,0.304   c-0.225,0.197-0.343,0.441-0.343,0.725c0,0.356,0.106,0.66,0.317,0.891c0.204,0.237,0.521,0.487,0.949,0.752l0.606,0.362   c0.653,0.389,1.167,0.812,1.543,1.259c0.375,0.448,0.567,1.029,0.567,1.734c0,0.766-0.271,1.404-0.798,1.932   c-0.527,0.521-1.286,0.777-2.282,0.777c-0.382,0-0.725-0.039-1.022-0.118s-0.554-0.172-0.771-0.277   c-0.225-0.112-0.409-0.23-0.554-0.356c-0.146-0.124-0.27-0.243-0.363-0.349l0.786-1.286c0.079,0.079,0.178,0.171,0.29,0.277   c0.112,0.111,0.25,0.211,0.416,0.316c0.158,0.099,0.336,0.185,0.541,0.25c0.198,0.066,0.435,0.098,0.698,0.098   c0.482,0,0.851-0.104,1.108-0.322c0.257-0.212,0.383-0.475,0.383-0.785c0-0.224-0.033-0.422-0.092-0.587   c-0.06-0.172-0.152-0.323-0.271-0.455c-0.119-0.132-0.264-0.264-0.442-0.382c-0.171-0.119-0.375-0.251-0.6-0.402l-0.606-0.376   c-0.6-0.396-1.075-0.805-1.411-1.227c-0.343-0.429-0.514-0.982-0.514-1.648c0-0.362,0.072-0.692,0.211-0.996   c0.138-0.303,0.336-0.561,0.593-0.784c0.251-0.217,0.548-0.396,0.89-0.521c0.343-0.126,0.706-0.191,1.095-0.191   c0.376,0,0.699,0.04,0.962,0.112c0.271,0.072,0.501,0.165,0.699,0.276c0.191,0.119,0.349,0.23,0.481,0.344   c0.125,0.111,0.23,0.21,0.31,0.289L97.94,64.525z M111.841,62.581l-2.928,9.639h-1.451l-0.981-3.375   c-0.146-0.481-0.271-0.93-0.37-1.345c-0.105-0.416-0.164-0.812-0.192-1.188h-0.039c-0.032,0.376-0.105,0.779-0.224,1.207   c-0.119,0.429-0.264,0.877-0.422,1.345l-1.102,3.356h-1.391l-3.034-9.639h1.748l1.45,5.46c0.133,0.507,0.251,0.982,0.351,1.417   c0.099,0.436,0.158,0.845,0.17,1.233h0.04c0.04-0.389,0.126-0.791,0.251-1.214c0.125-0.421,0.271-0.883,0.436-1.377l1.042-3.152   l-0.726-2.367h1.688l1.471,5.321c0.145,0.547,0.277,1.062,0.396,1.543c0.125,0.48,0.19,0.896,0.204,1.246h0.04   c0.025-0.35,0.093-0.766,0.204-1.253c0.105-0.487,0.23-1.002,0.375-1.536l1.433-5.321H111.841z M112.703,69.768   c0-0.56,0.113-1.028,0.324-1.404c0.218-0.376,0.501-0.679,0.863-0.916c0.363-0.231,0.785-0.402,1.279-0.501   c0.488-0.1,1.003-0.151,1.557-0.151h0.501v-0.924c0-0.817-0.145-1.378-0.436-1.688c-0.283-0.311-0.692-0.462-1.213-0.462   c-0.482,0-0.884,0.105-1.206,0.31c-0.324,0.212-0.574,0.396-0.76,0.554l-0.685-1.081c0.105-0.111,0.243-0.23,0.408-0.362   c0.172-0.132,0.376-0.264,0.613-0.383c0.244-0.118,0.514-0.224,0.824-0.303s0.659-0.119,1.042-0.119   c0.995,0,1.747,0.277,2.255,0.824c0.508,0.548,0.765,1.431,0.765,2.65v4.398c0,0.415,0.008,0.824,0.039,1.219   c0.027,0.39,0.054,0.659,0.079,0.791h-1.549l-0.06-1.068h-0.039c-0.054,0.126-0.133,0.258-0.244,0.416   c-0.106,0.151-0.237,0.296-0.402,0.422c-0.158,0.125-0.35,0.237-0.58,0.329c-0.224,0.093-0.494,0.139-0.805,0.139   c-0.362,0-0.698-0.065-1.015-0.197c-0.311-0.139-0.588-0.323-0.825-0.561c-0.229-0.244-0.415-0.528-0.54-0.857   C112.771,70.514,112.703,70.157,112.703,69.768 M115.619,71.073c0.229,0,0.428-0.032,0.605-0.098   c0.172-0.065,0.324-0.145,0.449-0.243c0.124-0.093,0.237-0.198,0.322-0.311c0.087-0.112,0.166-0.211,0.231-0.29v-2.13l-0.521,0.021   c-0.779,0.025-1.372,0.158-1.769,0.401c-0.401,0.244-0.605,0.633-0.605,1.167c0,0.494,0.111,0.864,0.343,1.114   C114.899,70.948,115.216,71.074,115.619,71.073 M115.235,59.805c0,0.31-0.092,0.554-0.276,0.745   c-0.19,0.185-0.416,0.284-0.686,0.284c-0.271,0-0.494-0.1-0.68-0.284c-0.19-0.191-0.283-0.436-0.283-0.745s0.093-0.554,0.283-0.745   c0.186-0.185,0.409-0.276,0.68-0.276c0.27,0,0.495,0.092,0.686,0.276C115.144,59.251,115.235,59.495,115.235,59.805    M118.329,59.805c0,0.31-0.093,0.554-0.277,0.745c-0.191,0.185-0.415,0.284-0.687,0.284c-0.271,0-0.494-0.1-0.679-0.284   c-0.191-0.191-0.284-0.436-0.284-0.745s0.093-0.554,0.284-0.745c0.185-0.185,0.408-0.276,0.679-0.276   c0.271,0,0.495,0.092,0.687,0.276C118.236,59.251,118.329,59.495,118.329,59.805 M125.521,64.006   c-0.039-0.027-0.125-0.06-0.263-0.1c-0.133-0.039-0.311-0.059-0.541-0.059c-0.508,0-0.903,0.131-1.193,0.408   c-0.29,0.27-0.495,0.573-0.614,0.89v7.076h-1.628v-9.64h1.49v1.306h0.039c0.067-0.191,0.152-0.376,0.257-0.554   c0.113-0.185,0.245-0.343,0.403-0.481c0.165-0.146,0.356-0.251,0.574-0.337c0.224-0.079,0.487-0.118,0.791-0.118   c0.23,0,0.415,0.02,0.554,0.06c0.139,0.039,0.25,0.072,0.329,0.099L125.521,64.006z M131.246,63.906h-2.11v5.341   c0,0.68,0.093,1.147,0.263,1.397c0.172,0.245,0.469,0.37,0.885,0.37c0.237,0,0.448-0.033,0.619-0.098   c0.178-0.066,0.304-0.133,0.383-0.185l0.225,1.304c-0.066,0.06-0.231,0.139-0.481,0.258c-0.257,0.111-0.601,0.165-1.028,0.165   c-0.831,0-1.452-0.231-1.867-0.692c-0.415-0.462-0.625-1.226-0.625-2.294v-5.565h-1.161v-1.088l1.161-0.237l0.184-2.697h1.444   v2.697h2.314L131.246,63.906z M134.72,72.221h-1.628v-9.64h1.628V72.221z M133.916,60.247c-0.329,0-0.601-0.105-0.805-0.323   c-0.197-0.211-0.297-0.495-0.297-0.844c0-0.33,0.1-0.607,0.297-0.825c0.204-0.21,0.476-0.316,0.805-0.316   c0.323,0,0.587,0.106,0.784,0.316c0.205,0.218,0.304,0.495,0.304,0.825c0,0.349-0.099,0.633-0.304,0.844   C134.503,60.142,134.239,60.247,133.916,60.247 M144.124,63.848h-1.207c0.31,0.507,0.463,1.081,0.463,1.721   c0,0.514-0.08,0.969-0.253,1.378c-0.164,0.408-0.4,0.758-0.697,1.035c-0.304,0.283-0.66,0.494-1.068,0.646   c-0.41,0.146-0.846,0.218-1.312,0.218h-0.265c-0.079,0-0.164-0.007-0.264-0.02c-0.157,0.066-0.322,0.171-0.5,0.323   c-0.172,0.145-0.265,0.343-0.265,0.58c0,0.197,0.078,0.369,0.237,0.494c0.151,0.126,0.403,0.191,0.751,0.191h1.227   c0.455,0,0.878,0.046,1.266,0.139c0.384,0.092,0.728,0.244,1.01,0.455c0.292,0.204,0.515,0.468,0.68,0.791   c0.158,0.316,0.237,0.713,0.237,1.16c0,0.528-0.111,1.003-0.329,1.432c-0.225,0.429-0.534,0.798-0.937,1.101   c-0.403,0.31-0.891,0.555-1.464,0.726c-0.581,0.172-1.221,0.264-1.932,0.264c-1.028,0-1.814-0.225-2.349-0.673   c-0.534-0.454-0.804-1.095-0.804-1.938c0-0.362,0.066-0.673,0.19-0.937c0.126-0.263,0.276-0.487,0.45-0.686   c0.178-0.19,0.355-0.343,0.534-0.462c0.183-0.111,0.321-0.203,0.435-0.27v-0.04c-0.415-0.31-0.628-0.757-0.628-1.344   c0-0.258,0.053-0.475,0.152-0.66c0.099-0.19,0.218-0.342,0.342-0.468c0.127-0.118,0.258-0.218,0.384-0.29   c0.125-0.072,0.224-0.125,0.289-0.151v-0.04c-0.494-0.224-0.896-0.587-1.192-1.074c-0.304-0.488-0.455-1.114-0.455-1.879   c0-0.534,0.085-1.003,0.263-1.411c0.172-0.409,0.41-0.745,0.7-1.016c0.297-0.271,0.639-0.469,1.035-0.606   c0.396-0.132,0.824-0.198,1.279-0.198s0.883,0.079,1.286,0.244h2.935L144.124,63.848z M139.646,71.917   c-0.283,0-0.534-0.02-0.744-0.06c-0.119,0.065-0.237,0.145-0.355,0.244c-0.113,0.092-0.218,0.204-0.311,0.336   c-0.093,0.139-0.165,0.29-0.231,0.475c-0.06,0.178-0.086,0.39-0.086,0.633c0,1.028,0.568,1.55,1.708,1.55   c0.977,0,1.701-0.191,2.17-0.573c0.469-0.383,0.698-0.824,0.698-1.319c0-0.468-0.144-0.798-0.441-0.995   c-0.297-0.191-0.692-0.29-1.187-0.29H139.646z M141.796,65.568c0-0.692-0.165-1.188-0.495-1.483   c-0.33-0.297-0.712-0.442-1.153-0.442c-0.469,0-0.87,0.146-1.207,0.442c-0.336,0.296-0.501,0.791-0.501,1.483   c0,0.698,0.165,1.192,0.501,1.489c0.337,0.297,0.725,0.442,1.167,0.442c0.468,0,0.863-0.146,1.193-0.442   S141.796,66.267,141.796,65.568 M152.036,65.831c0,0.416-0.014,0.771-0.04,1.075s-0.052,0.567-0.079,0.798h-4.925   c0.06,1.134,0.303,1.972,0.737,2.506c0.436,0.534,1.062,0.803,1.88,0.803c0.277,0,0.534-0.032,0.758-0.098   c0.23-0.065,0.429-0.151,0.594-0.243c0.171-0.093,0.31-0.186,0.423-0.277c0.118-0.099,0.197-0.172,0.249-0.225l0.608,1.147   c-0.066,0.066-0.173,0.165-0.304,0.29c-0.131,0.126-0.316,0.257-0.542,0.383c-0.229,0.125-0.507,0.237-0.843,0.329   c-0.337,0.093-0.732,0.139-1.188,0.139c-0.601,0-1.146-0.099-1.636-0.297c-0.488-0.204-0.903-0.514-1.246-0.936   c-0.342-0.422-0.606-0.956-0.791-1.609c-0.191-0.646-0.283-1.431-0.283-2.334c0-0.863,0.1-1.603,0.289-2.223   c0.198-0.626,0.463-1.133,0.792-1.536c0.336-0.402,0.726-0.699,1.167-0.896c0.442-0.191,0.917-0.29,1.424-0.29   c0.924,0,1.649,0.29,2.171,0.877C151.779,63.794,152.036,64.664,152.036,65.831 M148.982,63.662c-0.574,0-1.033,0.244-1.385,0.726   c-0.349,0.481-0.546,1.174-0.605,2.091h3.521c0.014-0.073,0.021-0.166,0.026-0.297c0.006-0.126,0.014-0.265,0.014-0.409   c0-0.673-0.139-1.188-0.401-1.557C149.88,63.848,149.492,63.662,148.982,63.662 M158.366,64.525   c-0.105-0.118-0.303-0.282-0.58-0.494c-0.283-0.204-0.652-0.31-1.107-0.31c-0.43,0-0.758,0.099-0.983,0.304   c-0.229,0.197-0.342,0.441-0.342,0.725c0,0.356,0.104,0.66,0.31,0.891c0.21,0.237,0.527,0.487,0.956,0.752l0.6,0.362   c0.66,0.389,1.175,0.812,1.551,1.259c0.376,0.448,0.56,1.029,0.56,1.734c0,0.766-0.264,1.404-0.791,1.932   c-0.528,0.521-1.292,0.777-2.281,0.777c-0.39,0-0.731-0.039-1.022-0.118c-0.297-0.079-0.554-0.172-0.777-0.277   c-0.218-0.112-0.403-0.23-0.548-0.356c-0.152-0.124-0.271-0.243-0.362-0.349l0.784-1.286c0.079,0.079,0.172,0.171,0.29,0.277   c0.112,0.111,0.251,0.211,0.409,0.316c0.158,0.099,0.343,0.185,0.541,0.25c0.203,0.066,0.435,0.098,0.705,0.098   c0.481,0,0.851-0.104,1.108-0.322c0.249-0.212,0.382-0.475,0.382-0.785c0-0.224-0.033-0.422-0.093-0.587   c-0.06-0.171-0.151-0.323-0.27-0.455c-0.126-0.131-0.271-0.264-0.442-0.382c-0.179-0.119-0.376-0.251-0.606-0.402l-0.601-0.376   c-0.605-0.396-1.074-0.805-1.417-1.226c-0.344-0.43-0.514-0.983-0.514-1.649c0-0.362,0.071-0.692,0.21-0.996   c0.146-0.303,0.344-0.56,0.594-0.784c0.257-0.217,0.554-0.396,0.897-0.521c0.342-0.125,0.704-0.191,1.094-0.191   c0.376,0,0.692,0.04,0.963,0.112c0.27,0.072,0.501,0.165,0.692,0.276c0.198,0.119,0.356,0.231,0.481,0.344   c0.132,0.111,0.231,0.21,0.31,0.289L158.366,64.525z M174.377,72.221h-1.933l-1.24-4.438h-4.2l-1.266,4.438h-1.767l4.516-13.86   h1.365L174.377,72.221z M170.822,66.458l-1.088-3.798c-0.145-0.508-0.277-0.996-0.382-1.457c-0.106-0.462-0.166-0.852-0.179-1.154   h-0.039c-0.016,0.303-0.079,0.686-0.191,1.134c-0.113,0.449-0.244,0.924-0.396,1.438l-1.141,3.837H170.822z M180.806,72.221v-6.205   c0-0.792-0.112-1.365-0.344-1.715c-0.229-0.343-0.594-0.521-1.108-0.521c-0.263,0-0.5,0.032-0.712,0.105   c-0.204,0.065-0.388,0.145-0.554,0.25c-0.158,0.1-0.297,0.211-0.415,0.33c-0.125,0.118-0.224,0.231-0.303,0.323v7.43h-1.629v-9.639   h1.483v1.081h0.046c0.065-0.105,0.165-0.237,0.297-0.389c0.132-0.158,0.303-0.304,0.501-0.441c0.205-0.146,0.435-0.258,0.706-0.356   c0.271-0.092,0.567-0.139,0.903-0.139c1.101,0,1.872,0.429,2.327,1.286c0.099-0.132,0.225-0.277,0.383-0.436   c0.165-0.151,0.349-0.29,0.566-0.422c0.212-0.125,0.455-0.23,0.72-0.31c0.27-0.079,0.566-0.119,0.883-0.119   c1.958,0,2.935,1.135,2.935,3.415v6.468h-1.629v-6.204c0-0.792-0.139-1.365-0.422-1.715c-0.277-0.343-0.692-0.521-1.246-0.521   c-0.455,0-0.831,0.111-1.134,0.336c-0.297,0.218-0.534,0.429-0.712,0.633c0.025,0.146,0.046,0.304,0.06,0.468   c0.012,0.173,0.02,0.344,0.02,0.534v6.468L180.806,72.221z M194.039,63.906h-2.11v5.341c0,0.679,0.093,1.147,0.264,1.397   c0.172,0.245,0.468,0.37,0.884,0.37c0.243,0,0.448-0.033,0.627-0.098c0.17-0.066,0.296-0.133,0.376-0.185l0.224,1.304   c-0.065,0.06-0.231,0.139-0.481,0.258c-0.257,0.111-0.601,0.165-1.028,0.165c-0.831,0-1.451-0.231-1.867-0.692   c-0.415-0.462-0.619-1.226-0.619-2.295v-5.564h-1.167v-1.088l1.167-0.237l0.178-2.697h1.444v2.697h2.314L194.039,63.906z"/>
	<path fill="#F6D111" d="M59.149,126.236h2.532v33.76h-5.908v-33.76H59.149z"/>
	<path fill="#E2140C" d="M59.149,92.303h2.532v33.933h-5.908V92.303H59.149z"/>
	<path d="M40.397,70.52c1.728,2.729,3.08,2.683,5.123,2.683c-1.688-1.293-2.809-2.954-3.336-3.797l-3.159-5.051   c-0.31-1.563-1.114-3.021-2.321-4.108c0.401-0.151,0.738-0.316,0.942-0.469c-2.057,0-4.102-1.048-5.229-1.048   c-0.718,0-1.187,0.435-1.187,1.01c0.046,0.633,0.706,1.278,1.913,1.278c0.277,0,0.626-0.032,1.009-0.099   c0.659,0.91,1.188,1.74,1.188,2.914c0,2.216-2.645,3.937-5.315,3.937c-0.151,0-0.296-0.007-0.441-0.02   c-0.244-0.548-1.048-1.464-1.048-2.512c0-1.755,1.147-3.192,1.147-4.933c0-1.082-0.528-1.754-0.732-2.031   c0.33-0.303,0.686-0.679,0.771-0.936c-0.191,0.085-0.416,0.099-0.752,0.099c-1.272,0-2.321-0.336-3.337-0.336   c-0.58,0-0.738,0.178-0.738,0.349c0,0.06,0.014,0.126,0.026,0.158c-0.211-0.086-0.415-0.139-0.66-0.185   c-0.296-0.06-0.619-0.085-0.962-0.085c-1.239,0-1.681,0.521-1.681,0.962c0,0.376,0.303,1.062,0.633,1.583   c0.481-0.244,1.062-0.409,1.325-0.409c0.66,0,1.24,0.626,1.55,1.365c-0.442,0.053-0.528,0.072-0.976,0.072   c-1.2,0-2.018-0.429-2.189-0.429c-0.013,0-0.046,0.007-0.046,0.033c0,0.171,0.343,0.613,1.016,0.863   c0.884,0.323,2.216,0.455,2.433,0.495c0,0.033-0.224,0.454-0.475,0.534c-0.053,0.02-0.093,0.02-0.158,0.006   c-0.923-0.178-1.181-0.257-2.354-0.705c-0.04-0.013-0.059,0.013-0.059,0.046c0,0.469,1.2,1.49,2.281,1.88   c-0.903,1.147-2.024,2.327-2.558,4.114c-0.145,0.013-0.291,0.02-0.442,0.02c-2.67,0-5.314-1.721-5.314-3.937   c0-1.174,0.527-2.004,1.187-2.914c0.382,0.065,0.732,0.099,1.009,0.099c1.207,0,1.866-0.646,1.912-1.279   c0-0.574-0.468-1.009-1.194-1.009c-1.121,0-3.165,1.048-5.222,1.048c0.205,0.152,0.541,0.317,0.943,0.469   c-1.207,1.088-2.012,2.545-2.321,4.108l-3.159,5.051c-0.527,0.844-1.648,2.504-3.336,3.797c2.038,0,3.396,0.046,5.124-2.683   l1.616-2.592c0.119,0.337,0.271,0.659,0.441,0.982l-3.217,5.15c-0.534,0.851-1.649,2.499-3.343,3.804   c2.044,0,3.396,0.047,5.124-2.683l2.769-4.438c0.211,0.218,0.429,0.435,0.66,0.639l-3.911,6.265   c-0.54,0.851-1.642,2.493-3.343,3.797c2.044,0,3.396,0.046,5.123-2.683l3.812-6.105c0.25,0.158,0.507,0.316,0.771,0.462   l-4.648,7.444c-0.541,0.856-1.642,2.492-3.344,3.797c2.044,0,3.396,0.046,5.124-2.69L19.652,74c0.284,0.112,0.574,0.218,0.864,0.31   l-5.414,8.664c-0.527,0.845-1.662,2.513-3.343,3.799c2.044,0,3.396,0.046,5.123-2.684l5.77-9.238   c0.06,0.013,0.119,0.026,0.178,0.033c0.158,0.501,0.264,0.969,0.264,1.431c0,2.901-1.906,5.466-4.188,7.444   c0.145,0.066,0.402,0.086,0.633,0.086c0.475,0,0.778-0.026,0.989-0.065c-0.527,1.206-1.662,2.762-2.235,3.566   c-0.752-0.138-1.84-0.243-2.552-0.243c-0.745,0-0.831,0.435-0.831,0.823c0,0.68,0.316,1.221,0.686,1.518   c0.139-0.344,0.416-0.812,1.793-0.812c0.027,0,0.072,0.006,0.139,0.013c-0.402,0.449-1.662,1.464-1.662,2.288   c0,0.541,0.593,1.359,1.377,1.359c-0.045-0.179-0.039-0.337-0.039-0.455c0-0.673,0.593-1.451,1.088-1.992   c-0.013,0.165-0.006,0.146-0.006,0.336c0,1.57,0.145,2.294,1.141,2.294c0.488,0,0.824-0.271,0.942-0.349   c-0.652-0.601-0.679-1.068-0.679-1.952v-0.758c0.006-0.204,0-0.469-0.033-0.659c0.363-0.054,0.508-0.054,0.778-0.054   c0,0,1.417-0.111,1.76,0.627c0.383-0.355,0.943-0.851,0.943-1.404c0-0.356-0.171-0.772-0.903-0.772   c-0.277,0-1.147,0.172-1.873,0.172c0.191-0.435,1.068-1.708,1.82-2.631c0.112,0.356,0.29,0.745,0.686,1.062   c0.052-0.594,0.402-2.473,1.332-3.567c0.112,0.738,0.257,1.503,0.257,3.105c0,3.904-0.943,6.792-2.935,7.339   c0.257,0.455,0.804,0.856,1.378,0.856c0.726,0,1.127-0.824,1.53-1.603c0.211,0.574,0.792,1.985,1.378,1.985   c0.581,0,1.167-1.411,1.378-1.985c0.402,0.778,0.798,1.603,1.529,1.603c0.568,0,1.122-0.401,1.379-0.856   c-1.992-0.548-2.935-3.435-2.935-7.339c0-1.603,0.145-2.367,0.257-3.105c0.923,1.095,1.273,2.974,1.333,3.567   c0.389-0.316,0.574-0.705,0.686-1.062c0.751,0.923,1.622,2.196,1.82,2.631c-0.732,0-1.596-0.172-1.873-0.172   c-0.732,0-0.904,0.416-0.904,0.772c0,0.554,0.561,1.049,0.943,1.404c0.343-0.738,1.761-0.627,1.761-0.627   c0.27,0,0.415,0,0.777,0.054c-0.033,0.19-0.04,0.455-0.04,0.659c0.007,0.31,0.007,0.533,0.007,0.758   c0,0.883-0.033,1.352-0.679,1.952c0.119,0.078,0.455,0.35,0.943,0.35c0.995,0,1.141-0.726,1.141-2.295   c0-0.19,0.007-0.171-0.007-0.336c0.495,0.541,1.088,1.319,1.088,1.992c0,0.118,0,0.276-0.046,0.455   c0.792,0,1.385-0.818,1.385-1.359c0-0.824-1.26-1.839-1.662-2.288c0.065-0.007,0.112-0.013,0.139-0.013   c1.378,0,1.655,0.468,1.793,0.812c0.369-0.297,0.686-0.838,0.686-1.518c0-0.389-0.085-0.823-0.831-0.823   c-0.712,0-1.8,0.105-2.552,0.243c-0.574-0.805-1.708-2.36-2.242-3.566c0.218,0.039,0.521,0.065,0.989,0.065   c0.237,0,0.495-0.02,0.64-0.086c-2.282-1.978-4.188-4.542-4.188-7.444c0-0.462,0.106-0.93,0.264-1.431   c0.059-0.007,0.119-0.021,0.178-0.033l5.77,9.238c1.721,2.729,3.08,2.684,5.124,2.684c-1.682-1.286-2.815-2.954-3.343-3.799   l-5.413-8.664c0.29-0.092,0.581-0.197,0.863-0.31l4.794,7.668c1.728,2.736,3.079,2.69,5.124,2.69   c-1.701-1.306-2.802-2.941-3.343-3.797l-4.648-7.444c0.264-0.146,0.521-0.304,0.771-0.462l3.811,6.105   c1.728,2.73,3.08,2.683,5.124,2.683c-1.701-1.304-2.803-2.947-3.344-3.797l-3.91-6.265c0.23-0.204,0.448-0.421,0.652-0.639   l2.776,4.438c1.727,2.729,3.079,2.684,5.124,2.684c-1.702-1.307-2.803-2.954-3.343-3.805l-3.218-5.15   c0.171-0.323,0.323-0.646,0.441-0.982L40.397,70.52z M14.562,64.585c0-1.926,1.398-3.448,1.893-3.877   c0.119,0.033,0.237,0.06,0.349,0.085c-0.521,0.641-1.444,1.708-1.444,3.126c0,2.815,3.006,5.263,6.416,5.263   c-0.026,0.243-0.033,0.494-0.033,0.758c0,0.409,0.02,0.798,0.06,1.167C17.951,71.08,14.562,67.955,14.562,64.585 M19.777,87.669   l-0.02,0.066h0.066c1.081,0,1.608-0.079,1.958-0.132c0.185-0.026,0.317-0.04,0.455-0.04c0.277,0,0.495,0.027,0.495,0.363   c0,0.237-0.27,0.6-0.534,0.817c-0.396-0.376-0.949-0.454-1.76-0.454c-0.376,0-0.877,0.065-1.141,0.104l-0.04,0.007l-0.046,0.007   l0.013,0.125c0.033,0.225,0.066,0.508,0.066,0.877v0.343l-0.007,0.422c0,0.923,0.125,1.444,0.448,1.839   c-0.085,0.033-0.218,0.06-0.303,0.06c-0.573,0-0.738-0.251-0.738-1.892c0-0.329-0.013-0.64-0.027-0.851l-0.02-0.304l-0.072,0.06   c-0.844,0.646-1.714,1.8-1.768,2.664c-0.257-0.165-0.534-0.533-0.534-0.817c0-0.475,0.706-1.181,1.53-1.998l0.468-0.475l0.06-0.06   l-0.152-0.04c-0.178-0.046-0.507-0.125-0.784-0.125c-0.917,0-1.498,0.171-1.854,0.561c-0.125-0.185-0.23-0.613-0.23-0.87   c0-0.158,0.033-0.276,0.099-0.343c0.079-0.079,0.204-0.079,0.316-0.079h0.02c1.015,0,2.222,0.185,2.697,0.264l0.026,0.006   l0.02-0.025c0.079-0.113,2.018-2.685,2.519-4.049c0.112-0.04,0.211-0.073,0.416-0.073c0.383,0,0.481,0.258,0.594,0.646   C20.806,85.737,20.054,86.878,19.777,87.669 M30.202,83.627c0.205,0,0.303,0.033,0.415,0.073c0.508,1.364,2.434,3.936,2.519,4.049   l0.013,0.025l0.033-0.006c0.475-0.079,1.682-0.264,2.697-0.264h0.02c0.112,0,0.238,0,0.317,0.079   c0.065,0.066,0.099,0.185,0.099,0.343c0,0.257-0.105,0.686-0.237,0.87c-0.356-0.39-0.93-0.561-1.847-0.561   c-0.277,0-0.607,0.079-0.785,0.125l-0.073,0.021l-0.085,0.02l0.534,0.534c0.825,0.817,1.53,1.523,1.53,1.998   c0,0.284-0.277,0.652-0.534,0.817c-0.053-0.864-0.923-2.017-1.773-2.664l-0.073-0.053l-0.013,0.297   c-0.013,0.211-0.027,0.521-0.027,0.851c0,1.641-0.171,1.892-0.738,1.892c-0.086,0-0.218-0.026-0.304-0.06   c0.316-0.396,0.448-0.916,0.448-1.839l-0.006-0.422l-0.007-0.343c0-0.369,0.04-0.652,0.072-0.877l0.014-0.125l-0.086-0.014   c-0.27-0.039-0.765-0.104-1.14-0.104c-0.812,0-1.365,0.078-1.761,0.454c-0.263-0.218-0.534-0.58-0.534-0.817   c0-0.336,0.211-0.363,0.495-0.363c0.138,0,0.271,0.014,0.456,0.04c0.349,0.053,0.876,0.132,1.958,0.132h0.065l-0.02-0.066   c-0.277-0.791-1.028-1.931-2.235-3.396C29.714,83.885,29.82,83.627,30.202,83.627 M25.731,61.176   c-0.125-0.501-0.376-1.016-0.706-1.404c-0.296-0.35-0.784-0.765-1.451-0.765c-0.303,0-0.804,0.145-1.127,0.277   c-0.125-0.218-0.356-0.746-0.356-0.983c0-0.243,0.416-0.494,1.207-0.494c1.741,0,2.783,0.785,2.783,2.11   C26.082,60.378,25.896,60.8,25.731,61.176 M26.51,59.455c-0.06-0.369-0.205-0.712-0.422-0.996c0.014-0.342,0.152-0.666,0.706-0.401   c-0.297,0.303-0.073,0.844-0.073,0.844s0.607-0.284,0.482-0.686C28.105,58.434,27.459,59.646,26.51,59.455 M29.899,71.106   c0.046-0.382,0.072-0.771,0.072-1.167c0-0.225,0-0.475-0.026-0.758c3.37-0.047,6.317-2.473,6.317-5.263   c0-1.418-0.923-2.485-1.451-3.126c0.119-0.025,0.237-0.052,0.356-0.085c0.495,0.429,1.893,1.951,1.893,3.877   C37.06,67.928,33.717,71.034,29.899,71.106"/>
	<path d="M61.681,58.717v33.759h-5.908V58.717H61.681z"/>
</g>
</svg>